<svg xmlns="http://www.w3.org/2000/svg" width="42" height="41" viewBox="0 0 42 41">
  <path id="volunteer_activism_FILL0_wght400_GRAD0_opsz48" d="M32.3,25.1q-4.7-4.2-8.2-8T20.6,10a5.979,5.979,0,0,1,6.1-6.1,6.039,6.039,0,0,1,2.975.825A9.2,9.2,0,0,1,32.3,6.95a9.2,9.2,0,0,1,2.625-2.225A6.039,6.039,0,0,1,37.9,3.9,5.979,5.979,0,0,1,44,10q0,3.3-3.5,7.1T32.3,25.1Zm0-4.15q3.3-3,6-5.95T41,10a2.994,2.994,0,0,0-3.1-3.1,3.8,3.8,0,0,0-1.675.4A5.014,5.014,0,0,0,34.55,8.8L32.3,11.55,30.05,8.8a5.014,5.014,0,0,0-1.675-1.5A3.8,3.8,0,0,0,26.7,6.9,2.994,2.994,0,0,0,23.6,10q0,2.05,2.7,5T32.3,20.95Zm0-7.05Zm-4,31L12.75,40.45V43.3H2V23.6H17.45L30.2,28.4a5.267,5.267,0,0,1,2.275,1.625A4.958,4.958,0,0,1,33.4,33.25h5.7a4.589,4.589,0,0,1,3.5,1.5A5.7,5.7,0,0,1,44,38.8v1.3ZM5,40.3H9.7V26.6H5Zm23.1,1.5,12.8-3.9a2.619,2.619,0,0,0-.75-1.3,1.661,1.661,0,0,0-1.05-.35H28.75a17.454,17.454,0,0,1-5.2-.75L19.5,34.25l1.1-2.9,3.65,1.2a13.807,13.807,0,0,0,2.375.55,30.135,30.135,0,0,0,3.575.15,3.2,3.2,0,0,0-.225-1.175,1.452,1.452,0,0,0-.775-.825L16.95,26.6h-4.2V37.3ZM9.7,33.45Zm20.5-.2ZM9.7,33.45Zm3.05,0Z" transform="translate(-2 -3.9)" fill="#df1079"/>
</svg>
