<svg xmlns="http://www.w3.org/2000/svg" width="50" height="44.01" viewBox="0 0 50 44.01">
  <g id="_17702429991582884281" data-name="17702429991582884281" transform="translate(-2.048 -9.47)">
    <path id="Path_6" data-name="Path 6" d="M14.383,21.813a3.243,3.243,0,0,0,6.367,0l.5-2.558a3.42,3.42,0,0,0-3.389-3.879h-.583a3.42,3.42,0,0,0-3.389,3.88Z" transform="translate(-7.042 -3.522)" fill="#ea1584"/>
    <path id="Path_7" data-name="Path 7" d="M17.864,58.476a.216.216,0,0,1-.009.336,1.646,1.646,0,0,1-1.064.331,1.566,1.566,0,0,1-.8-.255c-.082,2.9-.16,3.942-.245,6.862-.024,1.026-.068,2.607-.105,3.939a3.176,3.176,0,0,1-3.151,3.089l-1.968.014-1.968-.014a3.178,3.178,0,0,1-3.151-3.089c-.037-1.332-.078-2.913-.105-3.939-.082-2.919-.163-3.963-.245-6.862a1.555,1.555,0,0,1-.8.255,1.645,1.645,0,0,1-1.71-1.478.518.518,0,0,1-.01-.1v-.024c-.017-.547-.048-1.091-.078-1.638s-.071-1.088-.116-1.635-.092-1.091-.136-1.635L2.051,51a1,1,0,0,1,0-.143l.027-.245.156-1.5c.044-.5.1-1,.136-1.5s.078-1,.116-1.506.061-1,.075-1.509a2.5,2.5,0,0,1,1.081-1.985.892.892,0,0,1,.116-.071,2.3,2.3,0,0,1,1.132-.34c.564-.078,1.132-.15,1.7-.218.343-.048.687-.088,1.026-.129a.772.772,0,0,1,.809.377c.425.659.867,1.315,1.305,1.971.252.377.506.751.785,1.169,0-.007.007-.007.007-.01s.007,0,.01.01c.279-.418.53-.792.785-1.169.438-.656.877-1.312,1.305-1.971a.767.767,0,0,1,.805-.377c.343.041.687.082,1.03.129.568.068,1.139.139,1.7.218a2.268,2.268,0,0,1,.666.122l-2.257,5.292-.1.231a3.455,3.455,0,0,0-.061,2.535l2.437,6.665a3.354,3.354,0,0,0,1.016,1.423Z" transform="translate(0 -19.312)" fill="#ea1584"/>
    <path id="Path_8" data-name="Path 8" d="M54.831,16.275a3.431,3.431,0,0,0,6.736,0l.523-2.7a3.615,3.615,0,0,0-3.582-4.1H57.89a3.615,3.615,0,0,0-3.582,4.1Z" transform="translate(-31.151)" fill="#ea1584"/>
    <path id="Path_9" data-name="Path 9" d="M58.532,45.9l-.1-.221-2.671-6.271a2.612,2.612,0,0,0-.139-.275,2.484,2.484,0,0,0-1.353-1.111.013.013,0,0,1-.01,0,2.778,2.778,0,0,0-.642-.16c-.642-.088-1.292-.17-1.937-.248-.364-.048-.727-.092-1.088-.136a.816.816,0,0,0-.853.4c-.452.7-.918,1.39-1.38,2.087-.269.4-.537.8-.829,1.237a.011.011,0,1,0-.02,0c-.292-.442-.561-.839-.829-1.237-.462-.7-.928-1.387-1.38-2.087a.816.816,0,0,0-.853-.4c-.36.044-.724.088-1.088.136-.646.078-1.295.16-1.937.248a2.778,2.778,0,0,0-.642.16.012.012,0,0,1-.01,0,2.484,2.484,0,0,0-1.353,1.111,2.612,2.612,0,0,0-.139.275L36.61,45.676l-.1.221a1.76,1.76,0,0,0-.034,1.285l.275.748,2.162,5.914A1.691,1.691,0,0,0,42.133,52.8l-.517-1.818-1.169-4.106,1-1.6c.007.116.014.224.014.336.01.367.024.731.034,1.1.01.34.017.68.027,1.023l1.38,4.843a2.5,2.5,0,0,1-.619,2.43,2.576,2.576,0,0,1-.544.418c.085,3.1.17,4.2.258,7.3.027,1.088.071,2.76.112,4.167a3.359,3.359,0,0,0,3.331,3.266l2.08.014,2.08-.014a3.359,3.359,0,0,0,3.331-3.266c.041-1.407.085-3.079.112-4.167.088-3.1.173-4.2.258-7.3a2.577,2.577,0,0,1-.544-.418,2.5,2.5,0,0,1-.619-2.43l1.38-4.843c.01-.343.017-.683.027-1.023.01-.367.024-.731.034-1.1,0-.112.007-.221.014-.336l1,1.6L53.43,50.982,52.914,52.8a1.691,1.691,0,0,0,3.215,1.043L58.29,47.93l.275-.748a1.76,1.76,0,0,0-.034-1.285Z" transform="translate(-20.475 -16.694)" fill="#ea1584"/>
    <path id="Path_10" data-name="Path 10" d="M102.644,21.813a3.243,3.243,0,0,1-6.367,0l-.5-2.558a3.42,3.42,0,0,1,3.389-3.879h.583a3.42,3.42,0,0,1,3.389,3.879Z" transform="translate(-55.889 -3.522)" fill="#ea1584"/>
    <path id="Path_11" data-name="Path 11" d="M86.646,58.476a.216.216,0,0,0,.009.336,1.646,1.646,0,0,0,1.064.331,1.566,1.566,0,0,0,.8-.255c.082,2.9.16,3.942.245,6.862.024,1.026.068,2.607.105,3.939a3.176,3.176,0,0,0,3.151,3.089l1.968.014,1.968-.014a3.178,3.178,0,0,0,3.151-3.089c.037-1.332.078-2.913.105-3.939.082-2.919.163-3.963.245-6.862a1.555,1.555,0,0,0,.8.255,1.645,1.645,0,0,0,1.71-1.478.519.519,0,0,0,.01-.1v-.024c.017-.547.048-1.091.078-1.638s.071-1.088.116-1.635.092-1.091.136-1.635L102.46,51a1,1,0,0,0,0-.143l-.027-.245-.156-1.5c-.044-.5-.1-1-.136-1.5s-.078-1-.116-1.506-.061-1-.075-1.509a2.5,2.5,0,0,0-1.081-1.985.891.891,0,0,0-.116-.071,2.3,2.3,0,0,0-1.132-.34c-.564-.078-1.132-.15-1.7-.218-.343-.048-.687-.088-1.026-.129a.772.772,0,0,0-.809.377c-.425.659-.867,1.315-1.305,1.971-.251.377-.506.751-.785,1.169,0-.007-.007-.007-.007-.01s-.007,0-.01.01c-.279-.418-.53-.792-.785-1.169-.438-.656-.877-1.312-1.305-1.971a.767.767,0,0,0-.805-.377c-.343.041-.687.082-1.03.129-.568.068-1.139.139-1.7.218a2.268,2.268,0,0,0-.666.122l2.257,5.292.1.231a3.455,3.455,0,0,1,.061,2.535l-2.437,6.665a3.354,3.354,0,0,1-1.016,1.423Z" transform="translate(-50.414 -19.312)" fill="#ea1584"/>
  </g>
</svg>
