<svg width="15" height="30" viewBox="0 0 15 30" fill="none" xmlns="http://www.w3.org/2000/svg">
<path d="M14.1543 15.0175H9.80029V30.0005H3.30634V15.0175H0.236328V9.73755H3.30634V6.30853C3.29611 5.38168 3.46592 4.46168 3.80634 3.59955C4.18892 2.58468 4.87421 1.71194 5.76935 1.09955C6.98167 0.327119 8.40096 -0.0566696 9.83734 -0.00046042L14.6553 0.0335362V5.17654H11.1553C10.9661 5.16172 10.776 5.18951 10.5989 5.2579C10.4219 5.32629 10.2625 5.43351 10.1324 5.57168C10.0023 5.70985 9.9048 5.87545 9.84717 6.05627C9.78953 6.2371 9.77316 6.42857 9.79932 6.61654V9.73654H14.7243L14.1543 15.0175Z" fill="#EC028C"/>
</svg>
