<svg width="30" height="30" viewBox="0 0 30 30" fill="none" xmlns="http://www.w3.org/2000/svg">
<path d="M27.6002 0.000394608C27.8921 -0.0051056 28.1821 0.0480892 28.453 0.156828C28.7239 0.265566 28.9702 0.427627 29.1773 0.63339C29.3858 0.82861 29.5513 1.06512 29.6634 1.32785C29.7755 1.59058 29.8316 1.87377 29.8283 2.15939V27.8734C29.8328 28.1567 29.7772 28.4377 29.6649 28.6978C29.5527 28.958 29.3865 29.1913 29.1773 29.3824C28.9733 29.5818 28.7321 29.739 28.4673 29.845C28.2025 29.951 27.9194 30.0038 27.6342 30.0004H2.19429C1.90905 30.0042 1.62585 29.9516 1.36104 29.8455C1.09622 29.7395 0.854995 29.5821 0.65126 29.3824C0.442057 29.1913 0.27582 28.958 0.16359 28.6978C0.0513594 28.4377 -0.00430386 28.1567 0.000259526 27.8734V2.15939C-0.00331214 1.87375 0.0527168 1.59048 0.16481 1.32773C0.276904 1.06497 0.442598 0.828495 0.65126 0.63339C0.858285 0.427581 1.10459 0.265508 1.3755 0.156767C1.64641 0.048025 1.93642 -0.00516251 2.22829 0.000394608H27.5993H27.6002ZM8.64027 9.06839C9.08002 8.61976 9.32631 8.0166 9.32631 7.3884C9.32631 6.76019 9.08002 6.15703 8.64027 5.7084C8.39728 5.48148 8.11132 5.30549 7.79927 5.19076C7.48722 5.07604 7.15537 5.02488 6.82326 5.04037C6.14759 5.01144 5.48805 5.2517 4.98927 5.7084C4.76062 5.92315 4.58002 6.18386 4.45937 6.47342C4.33872 6.76298 4.28074 7.07482 4.28926 7.3884C4.28045 7.70074 4.33691 8.01147 4.45503 8.30075C4.57315 8.59003 4.75032 8.85148 4.97523 9.06839C5.21247 9.29364 5.49255 9.46897 5.79884 9.58389C6.10513 9.69881 6.4314 9.751 6.75826 9.73739H6.79225C7.12932 9.75468 7.46647 9.70439 7.78383 9.58951C8.10119 9.47462 8.39238 9.29744 8.64027 9.06839ZM9.05128 11.5894H4.56026V25.1274H9.05128V11.5894ZM25.2683 17.3494C25.3773 15.6869 24.8504 14.045 23.7943 12.7564C22.9518 11.9513 21.8684 11.4447 20.7104 11.3145C19.5524 11.1842 18.3835 11.4375 17.3833 12.0354C16.8486 12.4383 16.3949 12.9388 16.0463 13.5104V11.5904H11.5513C11.5733 12.1158 11.5733 14.527 11.5513 18.8244V25.1274H16.0423V17.5504C16.0269 17.1787 16.0732 16.807 16.1793 16.4504C16.3508 16.0084 16.6344 15.6186 17.0023 15.3194C17.4268 14.9716 17.9626 14.7887 18.5112 14.8044C18.852 14.784 19.1922 14.8523 19.4987 15.0025C19.8052 15.1527 20.0676 15.3797 20.2603 15.6614C20.6394 16.3301 20.8179 17.0939 20.7742 17.8614V25.1274H25.2653L25.2683 17.3494Z" fill="#EC038D"/>
</svg>
