<svg width="37" height="30" viewBox="0 0 37 30" fill="none" xmlns="http://www.w3.org/2000/svg">
<path d="M33.162 7.5102V8.48017C33.1508 11.0739 32.6795 13.6451 31.77 16.0742C30.8167 18.6093 29.4161 20.9528 27.635 22.9932C25.7602 25.1307 23.4616 26.8552 20.885 28.0572C17.9816 29.3646 14.8291 30.0269 11.645 29.9982C9.55969 30.0017 7.48488 29.7032 5.48505 29.1122C3.54635 28.5512 1.69888 27.7128 0 26.6232C0.590667 26.6806 1.19536 26.7086 1.81403 26.7072C3.52346 26.7129 5.22138 26.4275 6.83502 25.8632C8.41393 25.3137 9.89518 24.516 11.223 23.5002C9.6351 23.4594 8.10014 22.9208 6.83502 21.9603C5.57143 21.0329 4.63954 19.7238 4.177 18.2263C4.63605 18.3118 5.10209 18.3542 5.56903 18.3532C6.23813 18.3541 6.90455 18.269 7.552 18.1002C6.42888 17.8762 5.374 17.3919 4.47205 16.6862C3.55225 15.9794 2.80848 15.0693 2.29901 14.0272C1.78068 12.9835 1.49963 11.8382 1.47601 10.6732V10.5462C2.52718 11.1607 3.71864 11.4947 4.93604 11.5162C3.90407 10.8237 3.05684 9.88967 2.46802 8.79523C1.86416 7.68948 1.55202 6.44804 1.56104 5.18817C1.55632 3.85416 1.9059 2.54289 2.57404 1.38825C4.47976 3.72513 6.85294 5.6378 9.54132 7.0036C12.2297 8.36941 15.1739 9.15809 18.185 9.31916C18.0715 8.74952 18.0149 8.17002 18.016 7.58918C18.0038 6.25421 18.3539 4.94101 19.029 3.78925C19.6953 2.64427 20.6478 1.69209 21.793 1.02619C22.9341 0.34414 24.2397 -0.01332 25.569 -0.00774835C26.6065 -0.0101692 27.6332 0.2023 28.5845 0.616397C29.5357 1.03049 30.3909 1.63725 31.096 2.39826C32.796 2.0671 34.4242 1.43873 35.906 0.542178C35.6336 1.42468 35.197 2.2478 34.619 2.9682C34.0474 3.68119 33.3548 4.28807 32.573 4.76117C34.0882 4.57279 35.567 4.16028 36.961 3.53717C35.9355 5.07249 34.6499 6.41702 33.162 7.5102Z" fill="#EC038D"/>
</svg>
