<svg xmlns="http://www.w3.org/2000/svg" width="100" height="100" viewBox="0 0 100 100">
  <g id="Group_585" data-name="Group 585" transform="translate(-705 -4723)">
    <g id="Group_5" data-name="Group 5" transform="translate(705 4723)">
      <path id="Path_43" data-name="Path 43" d="M97.959,59.184H87.754V9.388a2.041,2.041,0,0,0-2.041-2.041H72.857V2.041a2.041,2.041,0,0,0-4.082,0V7.347H55.921A2.041,2.041,0,0,0,53.88,9.388V33.061H33.061V17.56a2.041,2.041,0,0,0-2.041-2.041H2.041A2.041,2.041,0,0,0,0,17.56v80.4A2.041,2.041,0,0,0,2.041,100H97.959A2.041,2.041,0,0,0,100,97.959V61.224A2.041,2.041,0,0,0,97.959,59.184ZM28.98,35.1V95.918H4.082V93.265h11.2a2.041,2.041,0,0,0,0-4.082H4.082V84.113h11.2a2.041,2.041,0,0,0,0-4.082H4.082V74.961h11.2a2.041,2.041,0,0,0,0-4.082H4.082v-5.07h11.2a2.041,2.041,0,0,0,0-4.082H4.082V56.656h11.2a2.041,2.041,0,0,0,0-4.082H4.082V47.5h11.2a2.041,2.041,0,0,0,0-4.082H4.082V38.352h11.2a2.041,2.041,0,0,0,0-4.082H4.082V29.2h11.2a2.041,2.041,0,0,0,0-4.082H4.082V19.6h24.9V35.1ZM57.962,11.429h25.71V59.184H68.163V35.1a2.041,2.041,0,0,0-2.041-2.041H57.962Zm-3.676,71H39.228V80.8H54.286Zm0-12.63h-15.1V68.17h15.1Zm0-8.574v2.863H37.145A2.041,2.041,0,0,0,35.1,66.129v5.71a2.041,2.041,0,0,0,2.041,2.041H54.286v2.838h-17.1a2.041,2.041,0,0,0-2.041,2.041v5.71a2.041,2.041,0,0,0,2.041,2.041h17.1v9.409H33.061V37.143h31.02V59.184H56.326A2.041,2.041,0,0,0,54.286,61.224ZM72.043,95.918H65.1V89h6.947v6.921Zm19.177,0H84.273V89H91.22Zm4.7,0H95.3V86.956a2.041,2.041,0,0,0-2.041-2.041H82.232a2.041,2.041,0,0,0-2.041,2.041v8.962H76.124V86.956a2.041,2.041,0,0,0-2.041-2.041H63.055a2.041,2.041,0,0,0-2.041,2.041v8.962H58.367V63.265H95.918Z" fill="#fff"/>
    </g>
    <g id="Group_7" data-name="Group 7" transform="translate(766.014 4789.748)">
      <path id="Path_44" data-name="Path 44" d="M325.462,341.747H314.433a2.041,2.041,0,0,0-2.041,2.041v11.037a2.041,2.041,0,1,0,4.082,0v-9h6.947V348.1a2.041,2.041,0,0,0,4.082,0v-4.308A2.041,2.041,0,0,0,325.462,341.747Z" transform="translate(-312.392 -341.747)" fill="#fff"/>
    </g>
    <g id="Group_9" data-name="Group 9" transform="translate(776.801 4800.729)">
      <path id="Path_45" data-name="Path 45" d="M369.66,397.967a2.041,2.041,0,0,0-2.041,2.041v.057a2.041,2.041,0,1,0,4.082,0v-.057A2.041,2.041,0,0,0,369.66,397.967Z" transform="translate(-367.619 -397.967)" fill="#fff"/>
    </g>
    <g id="Group_11" data-name="Group 11" transform="translate(785.191 4789.748)">
      <path id="Path_46" data-name="Path 46" d="M423.65,341.747H412.621a2.041,2.041,0,0,0-2.041,2.041v11.037a2.041,2.041,0,0,0,4.082,0v-9h6.947V348.1a2.041,2.041,0,0,0,4.082,0v-4.308A2.041,2.041,0,0,0,423.65,341.747Z" transform="translate(-410.58 -341.747)" fill="#fff"/>
    </g>
    <g id="Group_13" data-name="Group 13" transform="translate(795.978 4800.729)">
      <path id="Path_47" data-name="Path 47" d="M467.848,397.967a2.041,2.041,0,0,0-2.041,2.041v.057a2.041,2.041,0,1,0,4.082,0v-.057A2.041,2.041,0,0,0,467.848,397.967Z" transform="translate(-465.807 -397.967)" fill="#fff"/>
    </g>
    <g id="Group_15" data-name="Group 15" transform="translate(766.633 4740.246)">
      <path id="Path_48" data-name="Path 48" d="M317.6,88.3a2.041,2.041,0,0,0-2.041,2.041v3.265a2.041,2.041,0,1,0,4.082,0V90.344A2.041,2.041,0,0,0,317.6,88.3Z" transform="translate(-315.56 -88.303)" fill="#fff"/>
    </g>
    <g id="Group_17" data-name="Group 17" transform="translate(773.776 4740.246)">
      <path id="Path_49" data-name="Path 49" d="M354.173,88.3a2.041,2.041,0,0,0-2.041,2.041v3.265a2.041,2.041,0,1,0,4.082,0V90.344A2.041,2.041,0,0,0,354.173,88.3Z" transform="translate(-352.132 -88.303)" fill="#fff"/>
    </g>
    <g id="Group_19" data-name="Group 19" transform="translate(780.918 4740.246)">
      <path id="Path_50" data-name="Path 50" d="M390.744,88.3a2.041,2.041,0,0,0-2.041,2.041v3.265a2.041,2.041,0,0,0,4.082,0V90.344A2.041,2.041,0,0,0,390.744,88.3Z" transform="translate(-388.703 -88.303)" fill="#fff"/>
    </g>
    <g id="Group_21" data-name="Group 21" transform="translate(780.918 4752.796)">
      <path id="Path_51" data-name="Path 51" d="M390.744,152.555A2.041,2.041,0,0,0,388.7,154.6v3.265a2.041,2.041,0,0,0,4.082,0V154.6A2.041,2.041,0,0,0,390.744,152.555Z" transform="translate(-388.703 -152.555)" fill="#fff"/>
    </g>
    <g id="Group_23" data-name="Group 23" transform="translate(780.918 4765.653)">
      <path id="Path_52" data-name="Path 52" d="M390.744,218.384a2.041,2.041,0,0,0-2.041,2.041v3.265a2.041,2.041,0,0,0,4.082,0v-3.265A2.041,2.041,0,0,0,390.744,218.384Z" transform="translate(-388.703 -218.384)" fill="#fff"/>
    </g>
    <g id="Group_25" data-name="Group 25" transform="translate(740.104 4761.576)">
      <path id="Path_53" data-name="Path 53" d="M204.628,197.508H181.775a2.041,2.041,0,0,0-2.041,2.041v5.71a2.041,2.041,0,0,0,2.041,2.041h22.853a2.041,2.041,0,0,0,2.041-2.041v-5.71A2.041,2.041,0,0,0,204.628,197.508Zm-2.041,5.71H183.816V201.59h18.771Z" transform="translate(-179.734 -197.508)" fill="#fff"/>
    </g>
    <g id="Group_27" data-name="Group 27" transform="translate(740.104 4774.275)">
      <path id="Path_54" data-name="Path 54" d="M204.628,262.531H181.775a2.041,2.041,0,0,0-2.041,2.041v5.71a2.041,2.041,0,0,0,2.041,2.041h12.106a2.041,2.041,0,1,0,0-4.082H183.816v-1.628h18.771v.187a2.041,2.041,0,1,0,4.082,0v-2.228A2.041,2.041,0,0,0,204.628,262.531Z" transform="translate(-179.734 -262.531)" fill="#fff"/>
    </g>
  </g>
</svg>
