<svg width="10" height="21" viewBox="0 0 10 21" fill="none" xmlns="http://www.w3.org/2000/svg">
<path d="M9.27802 10.5108H6.37799V20.4998H2.04797V10.5108H0V6.99281H2.04602V4.70683C2.0391 4.08895 2.15213 3.4756 2.37897 2.90083C2.63345 2.2235 3.09014 1.64082 3.68701 1.23182C4.4955 0.717708 5.44164 0.462656 6.39899 0.500802L9.61102 0.523812V3.9528H7.27997C7.15415 3.94355 7.02786 3.96256 6.91034 4.00843C6.79282 4.0543 6.68705 4.1259 6.60077 4.21793C6.51448 4.30997 6.44988 4.42012 6.41168 4.54035C6.37348 4.66059 6.36267 4.78786 6.38 4.91282V6.99281H9.66302L9.27802 10.5108Z" fill="white"/>
</svg>
