<svg xmlns="http://www.w3.org/2000/svg" width="100" height="114.462" viewBox="0 0 100 114.462">
  <g id="Group_586" data-name="Group 586" transform="translate(-1129.5 -4716)">
    <path id="Path_75" data-name="Path 75" d="M52.52,126.249a7.155,7.155,0,0,0-8.542-1.18V101.282a7.1,7.1,0,0,0-.834-3.345,3.491,3.491,0,0,1,4.487,3.345v17.561a1.827,1.827,0,1,0,3.653,0V101.282a7.143,7.143,0,0,0-10.8-6.137,7.139,7.139,0,0,0-10.794,6.139l.03,33.521a11.764,11.764,0,0,0,1.317,5.023c.012.022.025.043.038.065l21.04,34.071a8.257,8.257,0,0,1,.831,3.205v6.679a1.827,1.827,0,0,0,3.653,0v-6.679a11.747,11.747,0,0,0-1.315-5.024l-.038-.065-21.04-34.071a8.276,8.276,0,0,1-.833-3.207l-.03-33.519a3.491,3.491,0,0,1,6.981,0V131.3c0,.043,0,.085.006.127a7.117,7.117,0,0,0,2.086,4.924l16.36,16.36a1.826,1.826,0,0,0,2.583-2.583L45,133.769a3.491,3.491,0,0,1,4.936-4.936l20.13,20.13a16.537,16.537,0,0,1,4.145,10.007v24.878a1.827,1.827,0,0,0,3.653,0V158.969a20.15,20.15,0,0,0-5.215-12.591Z" transform="translate(1099.809 4644.788)" fill="#fff"/>
    <path id="Path_76" data-name="Path 76" d="M283.528,94.139a7.1,7.1,0,0,0-3.651,1.007,7.143,7.143,0,0,0-10.8,6.137v17.561a1.827,1.827,0,1,0,3.653,0V101.283a3.491,3.491,0,0,1,4.487-3.345,7.1,7.1,0,0,0-.834,3.345V125.07a7.155,7.155,0,0,0-8.542,1.18l-20.13,20.13a20.151,20.151,0,0,0-5.215,12.591v24.877a1.827,1.827,0,0,0,3.653,0V158.97a16.537,16.537,0,0,1,4.145-10.007l20.13-20.13a3.491,3.491,0,1,1,4.936,4.936L259,150.129a1.826,1.826,0,1,0,2.583,2.583l16.36-16.36a7.118,7.118,0,0,0,2.086-4.924c0-.042.006-.084.006-.127V101.282a3.491,3.491,0,0,1,6.981,0l-.03,33.521a8.28,8.28,0,0,1-.833,3.207l-21.04,34.071c-.013.021-.026.043-.038.065a11.747,11.747,0,0,0-1.315,5.024v6.679a1.827,1.827,0,1,0,3.653,0v-6.679a8.258,8.258,0,0,1,.831-3.205l21.04-34.071c.013-.021.026-.043.038-.065a11.763,11.763,0,0,0,1.317-5.023l.03-33.523A7.152,7.152,0,0,0,283.528,94.139Z" transform="translate(938.828 4644.787)" fill="#fff"/>
    <path id="Path_77" data-name="Path 77" d="M174.679,16.135A16.132,16.132,0,0,0,146.008,5.983,15.99,15.99,0,0,0,133.534,0a16.135,16.135,0,0,0-12.873,25.862L144.582,57.48a1.826,1.826,0,0,0,2.913,0l23.922-31.619A15.994,15.994,0,0,0,174.679,16.135ZM168.5,23.658,146.039,53.351,123.574,23.658a12.369,12.369,0,0,1-2.522-7.523,12.421,12.421,0,0,1,24.841-.122,1.827,1.827,0,1,0,3.653,0,15.916,15.916,0,0,0-1.462-6.683,12.479,12.479,0,0,1,22.942,6.806A12.37,12.37,0,0,1,168.5,23.658Z" transform="translate(1033.461 4716)" fill="#fff"/>
  </g>
</svg>
