<svg width="54" height="54" viewBox="0 0 54 54" fill="none" xmlns="http://www.w3.org/2000/svg">
<path d="M34.9683 27.1055H40.5238C40.5224 23.4223 39.0587 19.8903 36.4543 17.2859C33.8499 14.6815 30.318 13.2178 26.6348 13.2165V18.772C27.7296 18.7705 28.8139 18.985 29.8256 19.4032C30.8374 19.8215 31.7567 20.4353 32.5308 21.2094C33.305 21.9836 33.9187 22.9028 34.337 23.9146C34.7553 24.9263 34.9698 26.0107 34.9683 27.1055V27.1055ZM46.0793 27.1055H51.6348C51.6348 20.4751 49.0008 14.1162 44.3124 9.4278C39.624 4.73939 33.2652 2.10547 26.6348 2.10547V7.66097C29.1888 7.65906 31.7181 8.16071 34.0781 9.13721C36.4381 10.1137 38.5824 11.5459 40.3884 13.3519C42.1943 15.1578 43.6265 17.3021 44.603 19.6621C45.5795 22.0221 46.0812 24.5514 46.0793 27.1055V27.1055ZM48.8573 36.8275C45.4884 36.8323 42.1406 36.2977 38.9408 35.244C38.6616 35.1574 38.3715 35.1108 38.0793 35.1055C37.3424 35.1085 36.6355 35.3973 36.1073 35.911L29.9958 42.022C22.1102 38.0114 15.7008 31.602 11.6903 23.7165L17.8013 17.5775C18.1692 17.2284 18.43 16.7817 18.5531 16.2896C18.6761 15.7976 18.6562 15.2806 18.4958 14.7995C17.4422 11.5998 16.9078 8.25211 16.9128 4.88347C16.9107 4.14735 16.6173 3.44198 16.0968 2.92146C15.5763 2.40094 14.8709 2.10758 14.1348 2.10547H4.41277C3.67664 2.10758 2.97127 2.40094 2.45075 2.92146C1.93024 3.44198 1.63688 4.14735 1.63477 4.88347C1.63424 11.0849 2.85531 17.2257 5.22826 22.9552C7.6012 28.6846 11.0795 33.8906 15.4646 38.2756C19.8497 42.6607 25.0556 46.139 30.7851 48.512C36.5145 50.8849 42.6553 52.106 48.8568 52.1055C49.5929 52.1034 50.2983 51.81 50.8188 51.2895C51.3393 50.769 51.6327 50.0636 51.6348 49.3275V39.6055C51.6327 38.8693 51.3393 38.164 50.8188 37.6435C50.2983 37.1229 49.5929 36.8296 48.8568 36.8275H48.8573ZM7.27377 7.66097H11.4403C11.6286 10.0841 12.0471 12.4837 12.6903 14.8275L9.35677 18.1885C8.22155 14.7809 7.52151 11.2436 7.27327 7.66047L7.27377 7.66097ZM46.0793 46.4665C42.4839 46.2253 38.9354 45.5156 35.5238 44.3555L38.8573 41.022C41.2149 41.6872 43.6352 42.1061 46.0793 42.272V46.4665Z" stroke="white" stroke-width="3"/>
</svg>
