<svg width="29" height="21" viewBox="0 0 29 21" fill="none" xmlns="http://www.w3.org/2000/svg">
<path d="M28.7656 10.5001C28.7656 12.0861 28.7546 13.0744 28.7326 13.4651C28.6453 14.7471 28.5583 15.6803 28.4716 16.265C28.3952 16.8135 28.2529 17.3508 28.0476 17.8651C27.8861 18.3327 27.6185 18.7563 27.2656 19.103C26.725 19.6448 26.0317 20.0084 25.2786 20.145C21.1519 20.4497 16.7536 20.5584 12.0836 20.4711C9.35027 20.4271 7.40091 20.3781 6.23558 20.3241C5.36778 20.3004 4.50256 20.2189 3.64561 20.0801C2.92057 19.9369 2.2528 19.586 1.72362 19.0701C1.2863 18.5509 0.974206 17.9381 0.811569 17.2791C0.701719 16.9499 0.620133 16.612 0.567612 16.269C0.512945 15.921 0.463911 15.3997 0.420578 14.7051C0.245224 11.9062 0.245224 9.09897 0.420578 6.30005L0.62059 4.70007C0.684198 4.16753 0.804175 3.64329 0.978561 3.13611C1.16229 2.64598 1.45148 2.20214 1.82561 1.83606C2.36925 1.3471 3.03219 1.01018 3.7476 0.859131C5.06055 0.693358 6.38227 0.606525 7.70561 0.599121C9.80095 0.532454 12.0759 0.499023 14.5306 0.499023C16.9852 0.499023 19.2602 0.537347 21.3556 0.614014C23.4509 0.69068 24.7813 0.772032 25.3466 0.858032C25.7894 0.948318 26.2135 1.11372 26.6006 1.34705C26.9744 1.56217 27.3012 1.85025 27.5616 2.19409C27.905 2.73593 28.158 3.33006 28.3106 3.95312C28.4782 4.56032 28.5874 5.18208 28.6366 5.81006C28.6366 5.91939 28.67 6.49511 28.7366 7.53711C28.7536 7.92811 28.7656 8.92212 28.7656 10.5001ZM15.6366 12.1001C17.3519 11.2334 18.5682 10.6034 19.2856 10.2101L11.6296 6.17004V14.217C12.5196 13.719 13.8552 13.0134 15.6366 12.1001Z" fill="white"/>
</svg>
