<svg width="26" height="21" viewBox="0 0 26 21" fill="none" xmlns="http://www.w3.org/2000/svg">
<path d="M22.4684 5.5059V6.153C22.4609 7.88226 22.1467 9.59648 21.5403 11.216C20.9047 12.9062 19.9709 14.4685 18.7834 15.8289C17.5335 17.2539 16.0011 18.4037 14.2834 19.205C12.3478 20.0766 10.2461 20.5181 8.12335 20.4989C6.73301 20.5012 5.34967 20.3022 4.01636 19.908C2.72375 19.5337 1.49203 18.9746 0.359375 18.248C0.753375 18.286 1.15636 18.3047 1.56836 18.304C2.70789 18.3076 3.83971 18.1171 4.91534 17.7409C5.9678 17.3746 6.95522 16.8429 7.84039 16.1659C6.78186 16.1386 5.75862 15.7794 4.91534 15.139C4.07297 14.5209 3.45175 13.6482 3.14337 12.6499C3.44942 12.7067 3.76008 12.7348 4.07135 12.7339C4.51743 12.7344 4.96175 12.6777 5.39337 12.565C4.64481 12.4158 3.94168 12.0931 3.34039 11.623C2.72708 11.1517 2.23111 10.5448 1.89136 9.8499C1.54595 9.15413 1.35883 8.39057 1.34338 7.61393V7.52995C2.04394 7.93959 2.83796 8.16235 3.64935 8.17692C2.96112 7.71535 2.39608 7.09267 2.00336 6.36296C1.60316 5.62675 1.39672 4.80086 1.40338 3.96293C1.40057 3.07442 1.63347 2.20104 2.07837 1.43193C3.34887 2.98972 4.93096 4.26474 6.72314 5.17521C8.51533 6.08569 10.478 6.61149 12.4854 6.71892C12.4099 6.33924 12.3724 5.95306 12.3734 5.56596C12.3656 4.67681 12.5989 3.80214 13.0484 3.03496C13.4926 2.27185 14.1273 1.63711 14.8904 1.19291C15.651 0.738408 16.5213 0.500212 17.4073 0.50395C18.0988 0.501759 18.7831 0.642762 19.4174 0.918134C20.0516 1.19351 20.6219 1.59725 21.0923 2.10393C22.2258 1.88295 23.3114 1.46384 24.2994 0.865888C24.1177 1.4541 23.8266 2.00278 23.4413 2.48295C23.0606 2.95989 22.599 3.36604 22.0774 3.6829C23.0874 3.55734 24.0732 3.28241 25.0024 2.86699C24.3174 3.88718 23.4599 4.78013 22.4684 5.5059Z" fill="white"/>
</svg>
