<svg width="55" height="55" viewBox="0 0 55 55" fill="none" xmlns="http://www.w3.org/2000/svg">
<path d="M28.9944 18.2876H25.2232V33.3721L37.1653 40.5384L39.0508 37.446L28.9944 31.4877V18.2876ZM41.1554 2.72656L52.7402 12.3933L49.5224 16.2549L37.9298 6.59059L41.1554 2.72656ZM14.3202 2.72656L17.5435 6.58817L5.95804 16.2525L2.74023 12.3908L14.3202 2.72656ZM27.7381 8.23237C23.263 8.23237 18.8884 9.5594 15.1674 12.0456C11.4465 14.5319 8.54641 18.0657 6.83385 22.2002C5.1213 26.3346 4.67321 30.8841 5.54627 35.2732C6.41932 39.6624 8.5743 43.694 11.7387 46.8584C14.9031 50.0228 18.9348 52.1778 23.3239 53.0508C27.713 53.9239 32.2625 53.4758 36.397 51.7633C40.5314 50.0507 44.0652 47.1506 46.5515 43.4297C49.0377 39.7087 50.3647 35.3341 50.3647 30.859C50.3647 27.8876 49.7795 24.9452 48.6423 22.2C47.5052 19.4548 45.8385 16.9604 43.7373 14.8593C41.6362 12.7583 39.1418 11.0916 36.3965 9.95455C33.6513 8.81749 30.7089 8.23229 27.7375 8.23237H27.7381ZM27.7381 48.4577C24.2574 48.4578 20.8548 47.4257 17.9607 45.4921C15.0665 43.5584 12.8107 40.8099 11.4786 37.5941C10.1465 34.3784 9.79794 30.8399 10.4769 27.426C11.1559 24.0122 12.832 20.8763 15.2932 18.4151C17.7544 15.9538 20.8901 14.2776 24.304 13.5985C27.7178 12.9194 31.2563 13.2679 34.4721 14.5999C37.6879 15.9319 40.4364 18.1875 42.3702 21.0816C44.304 23.9757 45.3362 27.3783 45.3362 30.859C45.3306 35.5246 43.4746 39.9975 40.1754 43.2965C36.8762 46.5955 32.4032 48.4512 27.7375 48.4565L27.7381 48.4577Z" stroke="white" stroke-width="3"/>
</svg>
