<svg xmlns="http://www.w3.org/2000/svg" width="100" height="101.305" viewBox="0 0 100 101.305">
  <g id="Group_584" data-name="Group 584" transform="translate(-288.059 -4728.519)">
    <path id="Path_88" data-name="Path 88" d="M102.114,40.266,71.488,28.585v-.238h2.384a1.144,1.144,0,0,0,.7-2.053L53.995,10.545V7.93a18.461,18.461,0,0,1,5.738.22,30.365,30.365,0,0,0,4.226.392,12.025,12.025,0,0,0,3.284-.424,1.144,1.144,0,0,0,.835-1.1V1.524a1.144,1.144,0,0,0-1.454-1.1A15.9,15.9,0,0,1,60.051.391,19.912,19.912,0,0,0,53.416.216c-.291.056-.911.219-.927.228a1.141,1.141,0,0,0-.783,1.08v9.021L31.134,26.294a1.144,1.144,0,0,0,.7,2.053h2.384v.239L3.586,40.266a1.144,1.144,0,0,0-.736,1.069v3.849A1.144,1.144,0,0,0,4.4,46.254l2.007-.766V89.9H5.7a1.144,1.144,0,0,0-1.144,1.144v9.118A1.144,1.144,0,0,0,5.7,101.3h94.29a1.144,1.144,0,0,0,1.144-1.144V91.042A1.144,1.144,0,0,0,99.995,89.9h-.7V45.488l2.006.765a1.144,1.144,0,0,0,1.552-1.069V41.335A1.144,1.144,0,0,0,102.114,40.266ZM53.485,63.842a1.144,1.144,0,0,0-1.269,0L34.238,75.826V74.2L52.851,61.789,71.464,74.2v1.63Zm8.721-35.5v3.845a1.144,1.144,0,0,0,1.144,1.144h.106V66.109l-9.972-6.648a1.144,1.144,0,0,0-1.269,0L42.242,66.11V33.335h.108a1.144,1.144,0,0,0,1.144-1.144V28.346H62.207Zm6.993,2.7H64.5v-2.7h4.7Zm-27.994,0H36.5v-2.7h4.7v2.7Zm-3.453,2.289h2.2v34.3l-2.2,1.467Zm27.993,34.3v-34.3h2.2V69.1ZM35.207,26.058l1.257-.962h8.729a1.144,1.144,0,0,0,0-2.289H39.453l1.495-1.144h3.558a1.144,1.144,0,0,0,0-2.289h-.568l8.913-6.823L70.494,26.058Zm24.526-23.4a21.625,21.625,0,0,0,6.056.271V6.1a18.468,18.468,0,0,1-5.738-.221,21.642,21.642,0,0,0-6.056-.271V2.438A18.468,18.468,0,0,1,59.733,2.658ZM5.139,42.123,34.213,31.035v1.4L5.139,43.523ZM8.7,44.615,35.464,34.407V70.628l-3.006,2a1.144,1.144,0,0,0-.51.952v4.38a1.144,1.144,0,0,0,1.779.952L35.546,77.7v6.434h-.9A1.144,1.144,0,0,0,33.5,85.283V89.9H8.7ZM6.849,98.232H15.9a1.144,1.144,0,0,0,0-2.289H6.849v-.687H11.78a1.144,1.144,0,1,0,0-2.289H6.849v-.783H33.5v.783H28.569a1.144,1.144,0,1,0,0,2.289H33.5v.687H31.233a1.144,1.144,0,0,0,0,2.289H33.5v.783H6.849Zm30.22.783H35.788V86.427h1.281Zm2.289-9.469H66.343v1.311H39.358Zm22.907-2.289H59.754V78.508h2.511Zm-4.8,0h-3.47V78.508h3.47Zm-5.759,0h-3.47V78.508h3.47Zm-5.759,0H43.437V78.508h2.511Zm-6.59,5.888H66.343V94.7H39.358Zm0,3.839H66.343v2.031H39.358Zm26.986-11.7v1.975H64.553V77.364a1.144,1.144,0,0,0-1.144-1.144H42.292a1.144,1.144,0,0,0-1.144,1.144v9.894H39.357V85.282a1.144,1.144,0,0,0-1.144-1.144h-.378v-7.96l5.145-3.43H54.8a1.144,1.144,0,0,0,0-2.289H46.413l1.954-1.3h2.776a1.142,1.142,0,0,0,.488-2.175l1.22-.813,15.016,10.01v7.96h-.379A1.144,1.144,0,0,0,66.343,85.282Zm3.57,13.733H68.632V86.427h1.281Zm2.289,0v-.783h2.267a1.144,1.144,0,1,0,0-2.289H72.2v-.687h4.931a1.144,1.144,0,1,0,0-2.289H72.2v-.783H98.851v.783H93.92a1.144,1.144,0,1,0,0,2.289h4.931v.687H89.8a1.144,1.144,0,1,0,0,2.289h9.05v.783ZM97,89.9H72.2V85.282a1.144,1.144,0,0,0-1.144-1.144h-.9V77.7l1.818,1.212a1.144,1.144,0,0,0,1.779-.952v-4.38a1.144,1.144,0,0,0-.51-.952l-3.007-2V34.406L97,44.615V89.9Zm3.558-46.374L71.488,32.434v-1.4l29.073,11.089Z" transform="translate(285.209 4728.52)" fill="#fff"/>
    <path id="Path_89" data-name="Path 89" d="M208.871,143.274a3.551,3.551,0,0,0-3.547,3.547V152.1a1.144,1.144,0,0,0,1.144,1.144h5.039a1.144,1.144,0,0,0,1.144-1.144v-5.276a3.551,3.551,0,0,0-3.547-3.547Zm1.492,3.547v4.131h-2.751v-4.131a1.26,1.26,0,0,1,1.259-1.259h.233A1.26,1.26,0,0,1,210.363,146.821Z" transform="translate(129.073 4618.035)" fill="#fff"/>
    <path id="Path_90" data-name="Path 90" d="M209.1,200h-.233a3.551,3.551,0,0,0-3.547,3.547v5.276a1.144,1.144,0,0,0,1.144,1.144h5.039a1.144,1.144,0,0,0,1.144-1.144v-5.276A3.551,3.551,0,0,0,209.1,200Zm1.259,7.679h-2.751v-4.131a1.26,1.26,0,0,1,1.259-1.259h.233a1.26,1.26,0,0,1,1.259,1.259Z" transform="translate(129.073 4574.293)" fill="#fff"/>
    <path id="Path_91" data-name="Path 91" d="M44.055,214.054h5.039a1.144,1.144,0,0,0,1.144-1.144v-5.276a3.551,3.551,0,0,0-3.547-3.547h-.233a3.551,3.551,0,0,0-3.547,3.547v5.276A1.144,1.144,0,0,0,44.055,214.054Zm1.144-6.42a1.26,1.26,0,0,1,1.259-1.259h.233a1.26,1.26,0,0,1,1.259,1.259v4.131H45.2Z" transform="translate(254.317 4571.139)" fill="#fff"/>
    <path id="Path_92" data-name="Path 92" d="M93.938,204.087h-.233a3.551,3.551,0,0,0-3.547,3.547v5.276a1.144,1.144,0,0,0,1.144,1.144h5.039a1.144,1.144,0,0,0,1.144-1.144v-5.276A3.551,3.551,0,0,0,93.938,204.087Zm1.259,7.679H92.447v-4.131a1.26,1.26,0,0,1,1.259-1.259h.233a1.26,1.26,0,0,1,1.259,1.259Z" transform="translate(217.882 4571.139)" fill="#fff"/>
    <path id="Path_93" data-name="Path 93" d="M44.055,278.013h5.039a1.144,1.144,0,0,0,1.144-1.144v-5.276a3.551,3.551,0,0,0-3.547-3.547h-.233a3.551,3.551,0,0,0-3.547,3.547v5.276A1.144,1.144,0,0,0,44.055,278.013Zm1.144-6.42a1.26,1.26,0,0,1,1.259-1.259h.233a1.26,1.26,0,0,1,1.259,1.259v4.131H45.2Z" transform="translate(254.317 4521.816)" fill="#fff"/>
    <path id="Path_94" data-name="Path 94" d="M93.938,268.045h-.233a3.551,3.551,0,0,0-3.547,3.547v5.276a1.144,1.144,0,0,0,1.144,1.144h5.039a1.144,1.144,0,0,0,1.144-1.144v-5.276A3.551,3.551,0,0,0,93.938,268.045Zm1.259,7.679H92.447v-4.131a1.26,1.26,0,0,1,1.259-1.259h.233a1.26,1.26,0,0,1,1.259,1.259Z" transform="translate(217.882 4521.818)" fill="#fff"/>
    <path id="Path_95" data-name="Path 95" d="M44.055,341.971h5.039a1.144,1.144,0,0,0,1.144-1.144v-5.276A3.551,3.551,0,0,0,46.691,332h-.233a3.551,3.551,0,0,0-3.547,3.547v5.276A1.144,1.144,0,0,0,44.055,341.971Zm1.144-6.42a1.26,1.26,0,0,1,1.259-1.259h.233a1.26,1.26,0,0,1,1.259,1.259v4.131H45.2Z" transform="translate(254.317 4472.496)" fill="#fff"/>
    <path id="Path_96" data-name="Path 96" d="M93.938,332h-.233a3.551,3.551,0,0,0-3.547,3.547v5.276a1.144,1.144,0,0,0,1.144,1.144h5.039a1.144,1.144,0,0,0,1.144-1.144v-5.276A3.551,3.551,0,0,0,93.938,332Zm1.259,7.678H92.447v-4.131a1.26,1.26,0,0,1,1.259-1.259h.233a1.26,1.26,0,0,1,1.259,1.259Z" transform="translate(217.882 4472.496)" fill="#fff"/>
    <path id="Path_97" data-name="Path 97" d="M368.881,214.054h5.039a1.144,1.144,0,0,0,1.144-1.144v-5.276a3.551,3.551,0,0,0-3.547-3.547h-.233a3.551,3.551,0,0,0-3.547,3.547v5.276A1.144,1.144,0,0,0,368.881,214.054Zm1.144-6.42a1.26,1.26,0,0,1,1.259-1.259h.233a1.26,1.26,0,0,1,1.259,1.259v4.131h-2.751Z" transform="translate(3.828 4571.139)" fill="#fff"/>
    <path id="Path_98" data-name="Path 98" d="M324.035,204.087a3.551,3.551,0,0,0-3.547,3.547v5.276a1.144,1.144,0,0,0,1.144,1.144h5.039a1.144,1.144,0,0,0,1.144-1.144v-5.276a3.551,3.551,0,0,0-3.547-3.547Zm1.492,3.547v4.131h-2.751v-4.131a1.26,1.26,0,0,1,1.259-1.259h.233A1.26,1.26,0,0,1,325.527,207.634Z" transform="translate(40.264 4571.139)" fill="#fff"/>
    <path id="Path_99" data-name="Path 99" d="M371.516,268.045h-.233a3.551,3.551,0,0,0-3.547,3.547v5.276a1.144,1.144,0,0,0,1.144,1.144h5.039a1.144,1.144,0,0,0,1.144-1.144v-5.276A3.551,3.551,0,0,0,371.516,268.045Zm1.259,7.679h-2.751v-4.131a1.26,1.26,0,0,1,1.259-1.259h.233a1.26,1.26,0,0,1,1.259,1.259Z" transform="translate(3.829 4521.818)" fill="#fff"/>
    <path id="Path_100" data-name="Path 100" d="M324.268,268.045h-.233a3.551,3.551,0,0,0-3.547,3.547v5.276a1.144,1.144,0,0,0,1.144,1.144h5.039a1.144,1.144,0,0,0,1.144-1.144v-5.276A3.551,3.551,0,0,0,324.268,268.045Zm1.259,7.679h-2.751v-4.131a1.26,1.26,0,0,1,1.259-1.259h.233a1.26,1.26,0,0,1,1.259,1.259Z" transform="translate(40.264 4521.818)" fill="#fff"/>
    <path id="Path_101" data-name="Path 101" d="M371.516,332h-.233a3.551,3.551,0,0,0-3.547,3.547v5.276a1.144,1.144,0,0,0,1.144,1.144h5.039a1.144,1.144,0,0,0,1.144-1.144v-5.276A3.551,3.551,0,0,0,371.516,332Zm1.259,7.678h-2.751v-4.131a1.26,1.26,0,0,1,1.259-1.259h.233a1.26,1.26,0,0,1,1.259,1.259Z" transform="translate(3.829 4472.496)" fill="#fff"/>
    <path id="Path_102" data-name="Path 102" d="M324.268,332h-.233a3.551,3.551,0,0,0-3.547,3.547v5.276a1.144,1.144,0,0,0,1.144,1.144h5.039a1.144,1.144,0,0,0,1.144-1.144v-5.276A3.551,3.551,0,0,0,324.268,332Zm1.259,7.678h-2.751v-4.131a1.26,1.26,0,0,1,1.259-1.259h.233a1.26,1.26,0,0,1,1.259,1.259Z" transform="translate(40.264 4472.496)" fill="#fff"/>
    <path id="Path_103" data-name="Path 103" d="M203.751,77.048a4.024,4.024,0,1,0,4.024-4.024A4.028,4.028,0,0,0,203.751,77.048Zm5.759,0a1.735,1.735,0,1,1-1.735-1.735A1.737,1.737,0,0,1,209.51,77.048Z" transform="translate(130.285 4672.207)" fill="#fff"/>
    <path id="Path_104" data-name="Path 104" d="M186.015,128.95h7.323a1.144,1.144,0,1,0,0-2.289h-7.323a1.144,1.144,0,0,0,0,2.289Z" transform="translate(144.845 4630.846)" fill="#fff"/>
    <path id="Path_105" data-name="Path 105" d="M122.777,162.95h2.517a1.144,1.144,0,1,0,0-2.289h-2.517a1.144,1.144,0,1,0,0,2.289Z" transform="translate(193.61 4604.627)" fill="#fff"/>
    <path id="Path_106" data-name="Path 106" d="M105.677,176.95h6.431a1.144,1.144,0,1,0,0-2.289h-6.431a1.144,1.144,0,0,0,0,2.289Z" transform="translate(206.797 4593.83)" fill="#fff"/>
    <path id="Path_107" data-name="Path 107" d="M301.177,162.95h2.517a1.144,1.144,0,1,0,0-2.289h-2.517a1.144,1.144,0,0,0,0,2.289Z" transform="translate(56.038 4604.627)" fill="#fff"/>
    <path id="Path_108" data-name="Path 108" d="M300.033,175.805a1.144,1.144,0,0,0,1.144,1.144h6.431a1.144,1.144,0,0,0,0-2.289h-6.431A1.144,1.144,0,0,0,300.033,175.805Z" transform="translate(56.038 4593.83)" fill="#fff"/>
    <path id="Path_109" data-name="Path 109" d="M37.071,379.661H32.015a1.144,1.144,0,0,0,0,2.289h5.056a1.144,1.144,0,1,0,0-2.289Z" transform="translate(263.601 4435.746)" fill="#fff"/>
    <path id="Path_110" data-name="Path 110" d="M67.017,379.66a1.145,1.145,0,1,0,.808.334A1.153,1.153,0,0,0,67.017,379.66Z" transform="translate(236.61 4435.746)" fill="#fff"/>
    <path id="Path_111" data-name="Path 111" d="M235.2,191.475a1.144,1.144,0,0,0,1.144,1.144h1.983a1.144,1.144,0,0,0,0-2.289h-1.983A1.144,1.144,0,0,0,235.2,191.475Z" transform="translate(106.031 4581.746)" fill="#fff"/>
    <path id="Path_112" data-name="Path 112" d="M243.2,203.808a1.144,1.144,0,0,0,1.144,1.144h1.983a1.144,1.144,0,0,0,0-2.289h-1.983A1.144,1.144,0,0,0,243.2,203.808Z" transform="translate(99.861 4572.236)" fill="#fff"/>
    <path id="Path_113" data-name="Path 113" d="M183.015,246.62H185a1.144,1.144,0,0,0,0-2.289h-1.983a1.144,1.144,0,0,0,0,2.289Z" transform="translate(147.158 4540.105)" fill="#fff"/>
    <path id="Path_114" data-name="Path 114" d="M360.348,258.62h1.983a1.144,1.144,0,0,0,0-2.289h-1.983a1.144,1.144,0,0,0,0,2.289Z" transform="translate(10.408 4530.852)" fill="#fff"/>
  </g>
</svg>
