<svg xmlns="http://www.w3.org/2000/svg" width="100" height="100" viewBox="0 0 100 100">
  <path id="Path_127" data-name="Path 127" d="M17.667,101H84.333V92.667H101v-25A27.128,27.128,0,0,0,81.906,41.79,18.734,18.734,0,0,0,71.833,7.25a18.549,18.549,0,0,0-5.273.777,20.742,20.742,0,0,0-31.121,0,18.549,18.549,0,0,0-5.273-.777A18.734,18.734,0,0,0,20.094,41.79,27.128,27.128,0,0,0,1,67.667v25H17.667Zm62.5-4.167H21.833V65.583c0-.7.044-1.383.1-2.065.021-.223.048-.444.073-.667.056-.471.129-.935.215-1.4.044-.233.079-.469.129-.7.129-.6.281-1.185.454-1.767.087-.288.192-.567.29-.85q.169-.494.358-.977.184-.466.387-.923c.133-.3.279-.59.425-.881q.319-.637.675-1.252c.208-.356.417-.712.642-1.056.175-.267.362-.525.548-.785s.4-.546.606-.81c.192-.244.383-.485.585-.721.263-.306.535-.6.813-.894.256-.271.519-.537.788-.8.331-.317.667-.627,1.017-.925.229-.194.467-.379.7-.565.273-.213.548-.421.831-.621.263-.187.525-.373.8-.55s.558-.344.84-.51q.8-.472,1.637-.881c.281-.138.558-.281.846-.408l.335-.15a22.809,22.809,0,0,1,8.817-1.767h12.5a22.753,22.753,0,0,1,8.815,1.769l.335.15c.287.125.565.271.846.408q.841.409,1.637.881c.283.167.567.331.84.51s.535.363.8.55c.281.2.558.408.831.621.237.185.475.371.7.565.35.3.685.608,1.017.925.271.258.531.525.787.8.277.292.552.587.812.894.2.235.394.477.585.721q.312.4.606.81c.185.26.375.517.548.785.225.344.435.7.642,1.056.237.41.463.829.675,1.252.146.292.292.583.425.881s.265.612.388.923.244.648.358.977c.1.283.2.565.29.85q.262.869.454,1.767c.05.231.088.467.129.7.083.46.158.927.215,1.4.027.221.054.444.073.667.063.679.106,1.367.106,2.062v31.25ZM96.833,67.667V88.5h-12.5V65.583a27.17,27.17,0,0,0-.165-2.927c-.025-.227-.073-.448-.1-.673-.1-.744-.217-1.483-.375-2.206-.052-.237-.123-.467-.181-.7-.175-.706-.369-1.4-.6-2.088-.077-.231-.167-.456-.25-.683-.246-.673-.515-1.335-.81-1.981-.1-.227-.215-.452-.327-.675q-.466-.947-1-1.848c-.131-.221-.262-.442-.4-.66-.375-.59-.773-1.16-1.19-1.719-.152-.2-.3-.41-.456-.61-.456-.577-.942-1.129-1.444-1.667-.142-.152-.273-.312-.419-.46a26.964,26.964,0,0,0-2.071-1.923A22.942,22.942,0,0,1,96.833,67.667Zm-27.66-56a14.26,14.26,0,0,1,2.66-.252A14.583,14.583,0,1,1,63.862,38.2c.031-.023.056-.052.085-.077a20.923,20.923,0,0,0,4.581-5.079c.04-.062.075-.125.115-.187q.541-.862,1-1.777c.05-.1.1-.2.144-.3q.416-.866.748-1.775c.046-.125.094-.25.138-.375.2-.581.375-1.175.525-1.779.037-.15.081-.3.115-.448.133-.59.233-1.19.315-1.8.023-.16.056-.319.073-.481a19.757,19.757,0,0,0,.137-2.29,20.845,20.845,0,0,0-.154-2.433c-.029-.254-.077-.5-.117-.758-.088-.558-.192-1.11-.321-1.654-.062-.265-.129-.527-.2-.788-.169-.6-.367-1.192-.588-1.769-.062-.16-.113-.325-.177-.483a20.711,20.711,0,0,0-1.081-2.24A.246.246,0,0,1,69.173,11.669Zm-5.333-.45.127.165c.1.127.194.26.292.39A16.7,16.7,0,0,1,66.7,16.3c.038.1.079.206.115.312a16.535,16.535,0,0,1,.575,2.292c.029.163.052.329.075.494a16.892,16.892,0,0,1,.2,2.435,16.372,16.372,0,0,1-.135,2.027c-.019.156-.048.31-.071.467a16.428,16.428,0,0,1-.331,1.633c-.029.112-.056.227-.088.34a16.729,16.729,0,0,1-1.606,3.829l-.038.063a16.462,16.462,0,0,1-1.115,1.667c-.037.048-.073.1-.11.148a16.7,16.7,0,0,1-2.946,2.958c-.065.05-.133.1-.2.148A16.784,16.784,0,0,1,59.415,36.2c-.1.058-.194.123-.3.179l-.237.137a16.616,16.616,0,0,1-15.76,0l-.238-.137c-.1-.056-.2-.121-.3-.179a16.784,16.784,0,0,1-1.615-1.083c-.067-.05-.133-.1-.2-.148a16.845,16.845,0,0,1-2.946-2.958c-.037-.048-.073-.1-.11-.148A16.821,16.821,0,0,1,36.6,30.192l-.037-.062A16.7,16.7,0,0,1,34.958,26.3c-.031-.11-.058-.225-.088-.335a16.59,16.59,0,0,1-.331-1.635c-.023-.156-.052-.308-.071-.467a16.37,16.37,0,0,1-.135-2.027,16.839,16.839,0,0,1,.2-2.433c.025-.165.046-.329.075-.494a16.61,16.61,0,0,1,.575-2.292c.035-.106.077-.208.115-.312a16.67,16.67,0,0,1,2.446-4.527c.1-.129.19-.265.292-.39l.127-.165a16.644,16.644,0,0,1,25.679,0ZM15.583,26A14.6,14.6,0,0,1,30.167,11.417a14.26,14.26,0,0,1,2.66.252l-.019.04a20.883,20.883,0,0,0-1.081,2.237c-.067.16-.117.325-.179.488-.221.577-.419,1.167-.588,1.767-.073.26-.14.523-.2.788-.129.544-.233,1.1-.321,1.654-.04.252-.085.5-.117.758a19.51,19.51,0,0,0-.021,4.725c.019.162.052.319.073.479.081.608.183,1.21.315,1.8.033.15.077.3.115.444.15.6.323,1.2.525,1.783.044.127.092.25.138.377q.334.906.748,1.773c.048.1.1.2.146.3q.456.916,1,1.777c.04.063.075.125.115.188a21,21,0,0,0,4.581,5.079c.029.025.056.052.085.077A14.572,14.572,0,0,1,15.583,26ZM5.167,88.5V67.667A22.946,22.946,0,0,1,27.46,44.758a27.386,27.386,0,0,0-2.071,1.923c-.146.148-.277.308-.419.46-.5.537-.987,1.09-1.446,1.669-.156.2-.3.4-.454.608-.419.558-.817,1.129-1.192,1.721-.138.219-.269.438-.4.66q-.538.9-1,1.848c-.11.225-.221.448-.327.675-.3.646-.565,1.308-.81,1.981-.083.229-.173.452-.25.683-.229.685-.423,1.383-.6,2.092-.058.233-.127.463-.179.7-.158.725-.275,1.465-.375,2.21-.031.225-.077.444-.1.671a27.1,27.1,0,0,0-.165,2.925V88.5Z" transform="translate(-1 -1)" fill="#fff"/>
</svg>
