<svg width="54" height="44" viewBox="0 0 54 44" fill="none" xmlns="http://www.w3.org/2000/svg">
<path d="M51.7402 7.10547C51.7364 5.78056 51.2084 4.51101 50.2715 3.57416C49.3347 2.63731 48.0651 2.10929 46.7402 2.10547H6.74023C5.41533 2.10929 4.14578 2.63731 3.20893 3.57416C2.27207 4.51101 1.74406 5.78056 1.74023 7.10547V37.1055C1.74406 38.4304 2.27207 39.6999 3.20893 40.6368C4.14578 41.5736 5.41533 42.1016 6.74023 42.1055H46.7402C48.0651 42.1016 49.3347 41.5736 50.2715 40.6368C51.2084 39.6999 51.7364 38.4304 51.7402 37.1055V7.10547ZM46.7402 7.10547L26.7402 19.6055L6.74023 7.10547H46.7402ZM46.7402 37.1055H6.74023V12.1055L26.7402 24.6055L46.7402 12.1055V37.1055Z" stroke="white" stroke-width="3"/>
</svg>
