<svg width="21" height="21" viewBox="0 0 21 21" fill="none" xmlns="http://www.w3.org/2000/svg">
<path d="M19.1043 0.500257C19.2988 0.496597 19.4921 0.532073 19.6726 0.604566C19.8532 0.677059 20.0173 0.785088 20.1553 0.922254C20.2943 1.05235 20.4047 1.20999 20.4794 1.38508C20.5541 1.56018 20.5915 1.74892 20.5893 1.93928V19.0823C20.5924 19.2712 20.5554 19.4585 20.4805 19.632C20.4057 19.8054 20.2948 19.9609 20.1553 20.0883C20.0193 20.2212 19.8584 20.326 19.6818 20.3967C19.5053 20.4674 19.3165 20.5026 19.1263 20.5003H2.16627C1.97606 20.5029 1.78721 20.4678 1.61061 20.397C1.43401 20.3263 1.27315 20.2214 1.13728 20.0883C0.997644 19.961 0.886738 19.8055 0.811904 19.632C0.73707 19.4586 0.700066 19.2712 0.703323 19.0823V1.93928C0.700968 1.74891 0.738335 1.56014 0.813064 1.38502C0.887793 1.20991 0.9982 1.05227 1.13728 0.922254C1.27526 0.785088 1.4394 0.677059 1.61995 0.604566C1.80049 0.532073 1.99379 0.496597 2.18831 0.500257H19.1023H19.1043ZM6.46431 6.54524C6.75747 6.24615 6.92165 5.84405 6.92165 5.42524C6.92165 5.00644 6.75747 4.60434 6.46431 4.30525C6.30234 4.15405 6.11174 4.03682 5.90376 3.9604C5.69579 3.88398 5.47464 3.8499 5.25331 3.86024C5.03022 3.85046 4.80739 3.88472 4.59755 3.96107C4.3877 4.03743 4.19493 4.15439 4.03029 4.30525C3.87746 4.44824 3.75669 4.62197 3.67586 4.81502C3.59502 5.00806 3.55595 5.21603 3.56129 5.42524C3.55554 5.63343 3.59321 5.84051 3.67189 6.03334C3.75057 6.22617 3.86857 6.40051 4.01833 6.54524C4.17652 6.69545 4.36327 6.81237 4.56752 6.88899C4.77177 6.96561 4.98933 7.0004 5.20729 6.99128H5.2303C5.45535 7.00308 5.68047 6.96968 5.89241 6.89308C6.10435 6.81648 6.29881 6.69819 6.46431 6.54524ZM6.7383 8.22627H3.74428V17.2553H6.7383V8.22627ZM17.5493 12.0662C17.6218 10.9578 17.2705 9.86334 16.5663 9.00428C16.0047 8.46748 15.2825 8.12968 14.5105 8.0428C13.7384 7.95591 12.9592 8.12472 12.2923 8.52327C11.936 8.79185 11.6337 9.12535 11.4013 9.50624V8.22725H8.4073C8.42197 8.57725 8.42197 10.1849 8.4073 13.0502V17.2553H11.4013V12.2042C11.3912 11.9572 11.4219 11.7103 11.4923 11.4733C11.6068 11.1785 11.7959 10.9187 12.0413 10.7193C12.3244 10.4875 12.6816 10.3657 13.0473 10.3762C13.2744 10.3626 13.5012 10.408 13.7055 10.5081C13.9099 10.6081 14.0848 10.7595 14.2133 10.9473C14.4656 11.3919 14.5847 11.8998 14.5563 12.4102V17.2553H17.5503L17.5493 12.0662Z" fill="white"/>
</svg>
