<svg xmlns="http://www.w3.org/2000/svg" width="50" height="57.708" viewBox="0 0 50 57.708">
  <g id="city-buildings-svgrepo-com" transform="translate(-2.136)">
    <path id="Path_60" data-name="Path 60" d="M45.1,27.228V7.564L40.055,5.969V4.043L27.921,0,17.828,2.863V4.6L12.981,5.916V24.262L2.136,25.742V55.858l15.257,1.849.032-.047,2.7-.327V48.809l4.263-.251v8.258l2.9-.364V48.365l3.816-.222v7.838l1.858-.195L32.94,40.9h7.237V54.426l2.654-.327V47.205l2.927-.164v6.7l2.01-.249V46.909l2.669-.15v6.414l1.7-.207V28.141ZM5.472,46.115l-2.217-.092V44.046l2.217.052Zm0-3.486L3.255,42.6V40.623l2.217-.011Zm.018-3.415-2.217.036V37.271L5.49,37.2Zm0-3.372-2.217.1V33.96l2.217-.132Zm0-3.545-2.217.164V30.481l2.217-.2ZM9,46.2l-2.346-.1V44.071L9,44.127V46.2Zm0-3.585-2.346-.031V40.553L9,40.542v2.075Zm.02-3.515-2.347.038V37.1l2.347-.074Zm0-3.471-2.347.106V33.7l2.347-.144Zm0-3.643-2.347.173V30.124l2.347-.207Zm3.549,14.38-2.481-.1V44.176l2.481.06Zm0-3.688-2.481-.034V40.556l2.481-.011Zm.022-3.618-2.481.038V37.011l2.481-.081Zm0-3.567-2.481.108V33.516l2.481-.15Zm0-3.751-2.481.184V29.837l2.481-.222ZM14.961,8.491l2.833-.7v4.343l-2.833.608Zm0,6.818,2.833-.554V19.1l-2.833.462ZM16.42,46.536l-2.629-.108V44.277l2.629.063Zm0-3.8-2.629-.034V40.555l2.629-.013Zm.025-3.728-2.631.04V36.9l2.631-.087Zm0-3.675-2.631.114V33.3l2.631-.159Zm0-3.865-2.631.193V29.514l2.631-.236Zm1.368-7.643-.673-.087-2.16.269V22.267l2.833-.4v1.967Zm8.4,11.878V33.536l2.32.141v2.131Zm2.281,1.4v2.133L26.169,39.2V37.029Zm.02-6.91v2.133l-2.322-.168V29.989ZM26.7,24.953l-3.217-.408V21.106L26.7,20.65ZM23.461,6.438l3.215-.792v4.63l-3.215.689Zm0,7.26,3.215-.626V17.7l-3.215.521ZM19.206,7.452,22.228,6.7v4.487l-3.022.65Zm0,7.038,3.022-.59v4.487l-3.022.491Zm-.462,14.8,2.6.233v2.255l-2.6-.188Zm.07,3.814,2.6.159v2.252l-2.6-.112Zm2.623,3.668v2.254l-2.6-.04v-2.3Zm-2.6,3.76,2.6.013V42.8l-2.6.036Zm2.654,5.956-2.6.11v-2.3l2.6-.061Zm.756-22.1-3.022-.383V21.673l3.022-.429Zm.451,5.281,2.452.218v2.189L22.7,31.9Zm.022,3.648,2.452.15v2.187l-2.452-.106Zm2.474,3.6v2.189l-2.45-.038v-2.23Zm-2.45,3.652,2.45.011v2.189l-2.45.032Zm2.479,5.747-2.448.1V44.2l2.448-.058Zm.944-5.656,2.326.009v2.133l-2.326.032Zm2.382,5.545-2.32.1V44.138l2.32-.056Zm.857-40.538,3.118.908v4.377l-3.118-.812Zm.1,7.609,3.114.713v4.372l-3.114-.615Zm2.3,19.262-2.2-.159V30.27l2.2.195Zm.02,1.317v2.069l-2.2-.1V33.724Zm-.038,3.334v2.069l-2.2-.034V37.117Zm0,3.471v2.069l-2.2.032V40.656Zm.043,5.456-2.2.092V44.1l2.2-.052Zm.807-20.457-3.111-.424V20.773l3.111.518v4.374Zm16.688,6.284,1.543.139v1.739l-1.543-.112Zm1.559,2.981v1.743L49.348,36.6V34.837ZM49.32,37.682l1.543.051v1.741l-1.543-.025Zm-2.376-5.931,1.617.144v1.779l-1.617-.115Zm1.629,3.055v1.779l-1.617-.07V34.707Zm-1.645,2.813,1.617.054v1.779l-1.617-.027Zm-9.043-29.5,2.7.787v4.079l-2.7-.707Zm2.784,7.693V19.89l-2.7-.536V15.2ZM36.845,22V26.22l-2.892-.4v-4.3Zm-.022-2.822-2.894-.572V14.3l2.894.662ZM33.835,6.972l2.894.843v4.22l-2.894-.754Zm6.414,32.39L32.964,39.3V37.251l7.286.184Zm.067-3.031-7.372-.368V33.917l7.372.489ZM40.35,33.1l-7.4-.482V30.577l7.4.6Zm.337-6.414-2.7-.37V22.165l2.7.449ZM41.761,9.265,44.28,10V13.94l-2.519-.657Zm2.6,7.408v3.939l-2.519-.5V16.1ZM41.823,31.261l1.779.161v1.867l-1.779-.13ZM41.87,34.4l1.777.11v1.864L41.87,36.3Zm1.8,3.017v1.864l-1.777-.032v-1.9Zm-1.781,3.114,1.775.013v1.862l-1.775.023ZM43.7,45.466l-1.775.07v-1.9L43.7,43.6Zm.68-18.283-2.515-.345V22.826l2.515.419Zm.15,4.346,1.692.152V33.5l-1.692-.124Zm.016,3.022,1.692.106v1.821L44.545,36.4Zm1.707,2.981v1.824l-1.692-.032V37.475Zm-1.691,3.038,1.692.011V42.4l-1.692.02Zm1.71,4.783-1.692.069V43.573l1.692-.04Zm.653-4.709,1.617.009v1.781l-1.617.022Zm1.658,4.639-1.617.065V43.541l1.617-.038Zm.733-4.646,1.544.007v1.743l-1.544.02Zm1.579,4.588-1.543.063V43.523l1.543-.036Z" fill="#ea1584"/>
  </g>
</svg>
