<svg width="26" height="27" viewBox="0 0 26 27" fill="none" xmlns="http://www.w3.org/2000/svg">
<path d="M25.1484 0.230469H0.148438V26.1686H25.1484V0.230469Z" fill="#EC038D"/>
<path d="M16.4931 8.4845C16.5815 8.48277 16.6693 8.4995 16.7514 8.53369C16.8335 8.56788 16.9081 8.61882 16.9708 8.68351C17.034 8.74486 17.0842 8.81921 17.1181 8.90178C17.1521 8.98436 17.1691 9.07337 17.1681 9.16314V17.2478C17.1695 17.3369 17.1527 17.4253 17.1186 17.5071C17.0846 17.5889 17.0342 17.6622 16.9708 17.7223C16.909 17.785 16.8359 17.8344 16.7556 17.8677C16.6753 17.9011 16.5895 17.9177 16.5031 17.9166H8.79397C8.70751 17.9178 8.62167 17.9012 8.5414 17.8679C8.46113 17.8345 8.38801 17.7851 8.32625 17.7223C8.26278 17.6623 8.21237 17.5889 8.17835 17.5071C8.14434 17.4253 8.12752 17.3369 8.129 17.2478V9.16314C8.12793 9.07336 8.14491 8.98434 8.17888 8.90175C8.21285 8.81917 8.26303 8.74483 8.32625 8.68351C8.38897 8.61882 8.46358 8.56788 8.54564 8.53369C8.62771 8.4995 8.71557 8.48277 8.80399 8.4845H16.4922H16.4931ZM10.7476 11.3353C10.8809 11.1943 10.9555 11.0046 10.9555 10.8071C10.9555 10.6096 10.8809 10.42 10.7476 10.2789C10.674 10.2076 10.5874 10.1524 10.4928 10.1163C10.3983 10.0803 10.2978 10.0642 10.1972 10.0691C10.0958 10.0645 9.99448 10.0806 9.8991 10.1166C9.80371 10.1526 9.71609 10.2078 9.64125 10.2789C9.57179 10.3464 9.51689 10.4283 9.48015 10.5193C9.4434 10.6104 9.42565 10.7085 9.42807 10.8071C9.42546 10.9053 9.44258 11.003 9.47834 11.0939C9.51411 11.1849 9.56775 11.2671 9.63582 11.3353C9.70772 11.4062 9.79261 11.4613 9.88545 11.4974C9.97829 11.5336 10.0772 11.55 10.1763 11.5457H10.1867C10.289 11.5512 10.3913 11.5355 10.4877 11.4994C10.584 11.4632 10.6724 11.4075 10.7476 11.3353ZM10.8722 12.1281H9.51125V16.3862H10.8722V12.1281ZM15.7862 13.939C15.8192 13.4163 15.6595 12.9002 15.3394 12.495C15.0842 12.2419 14.7559 12.0826 14.405 12.0416C14.054 12.0006 13.6998 12.0802 13.3967 12.2682C13.2348 12.3948 13.0974 12.5521 12.9917 12.7317V12.1286H11.6308C11.6375 12.2936 11.6375 13.0518 11.6308 14.4031V16.3862H12.9917V14.0041C12.9871 13.8876 13.0011 13.7712 13.0331 13.6594C13.0851 13.5204 13.1711 13.3978 13.2826 13.3038C13.4113 13.1945 13.5737 13.1371 13.7399 13.142C13.8431 13.1356 13.9462 13.157 14.0391 13.2042C14.132 13.2514 14.2115 13.3228 14.2699 13.4113C14.3846 13.621 14.4387 13.8605 14.4258 14.1013V16.3862H15.7867L15.7862 13.939Z" fill="white"/>
</svg>
