<svg width="26" height="27" viewBox="0 0 26 27" fill="none" xmlns="http://www.w3.org/2000/svg">
<path d="M0.445312 0.230469H25.4453V26.1686H0.445312V0.230469Z" fill="#EC038D"/>
<path d="M19.4165 13.2009C19.4165 13.9489 19.4115 14.415 19.4015 14.5992C19.3618 15.2038 19.3223 15.6439 19.2829 15.9197C19.2482 16.1783 19.1835 16.4317 19.0902 16.6743C19.0168 16.8948 18.8951 17.0946 18.7347 17.2581C18.489 17.5136 18.1739 17.6851 17.8315 17.7495C15.9558 17.8932 13.9565 17.9444 11.8338 17.9032C10.5914 17.8825 9.70532 17.8594 9.17562 17.8339C8.78117 17.8228 8.38788 17.7843 7.99836 17.7189C7.6688 17.6513 7.36526 17.4858 7.12473 17.2425C6.92595 16.9977 6.78408 16.7087 6.71016 16.3979C6.66023 16.2427 6.62314 16.0833 6.59927 15.9216C6.57442 15.7574 6.55213 15.5116 6.53244 15.184C6.45273 13.864 6.45273 12.5401 6.53244 11.2202L6.62335 10.4656C6.65226 10.2145 6.7068 9.96722 6.78606 9.72803C6.86958 9.49689 7.00103 9.28757 7.17109 9.11493C7.4182 8.88433 7.71953 8.72544 8.04472 8.6542C8.64151 8.57602 9.24229 8.53507 9.84382 8.53158C10.7962 8.50014 11.8303 8.48438 12.9461 8.48438C14.0618 8.48438 15.0959 8.50245 16.0483 8.5386C17.0008 8.57476 17.6055 8.61313 17.8624 8.65368C18.0637 8.69626 18.2565 8.77427 18.4324 8.8843C18.6024 8.98576 18.7509 9.12162 18.8693 9.28377C19.0253 9.53931 19.1403 9.8195 19.2097 10.1133C19.2859 10.3997 19.3355 10.6929 19.3579 10.9891C19.3579 11.0406 19.3731 11.3121 19.4034 11.8036C19.4111 11.988 19.4165 12.4567 19.4165 13.2009ZM13.4488 13.9555C14.2285 13.5468 14.7814 13.2496 15.1074 13.0641L11.6274 11.1588V14.9538C12.032 14.719 12.6391 14.3862 13.4488 13.9555Z" fill="white"/>
</svg>
