<svg width="25" height="27" viewBox="0 0 25 27" fill="none" xmlns="http://www.w3.org/2000/svg">
<path d="M0 0.230469H25V26.1686H0V0.230469Z" fill="#EC038D"/>
<path d="M14.522 13.2069H13.2038V17.9177H11.2356V13.2069H10.3047V11.5478H11.2347V10.4697C11.2315 10.1783 11.2829 9.88906 11.386 9.61799C11.5017 9.29856 11.7093 9.02377 11.9806 8.83089C12.3481 8.58843 12.7782 8.46815 13.2133 8.48613L14.6733 8.49699V10.1141H13.6138C13.5566 10.1097 13.4992 10.1187 13.4458 10.1403C13.3923 10.162 13.3443 10.1957 13.305 10.2391C13.2658 10.2826 13.2365 10.3345 13.2191 10.3912C13.2017 10.4479 13.1968 10.5079 13.2047 10.5669V11.5478H14.697L14.522 13.2069Z" fill="white"/>
</svg>
