<svg width="38" height="39" viewBox="0 0 38 39" fill="none" xmlns="http://www.w3.org/2000/svg">
<path d="M0.3125 0.792969H37.6006V38.0811H0.3125V0.792969Z" fill="#EC038D"/>
<path d="M25.5927 16.0513V16.49C25.5876 17.6624 25.3746 18.8246 24.9635 19.9226C24.5326 21.0685 23.8995 22.1277 23.0944 23.05C22.247 24.0161 21.2081 24.7956 20.0435 25.3389C18.7312 25.9298 17.3064 26.2291 15.8672 26.2161C14.9246 26.2176 13.9868 26.0827 13.0828 25.8155C12.2065 25.5617 11.3714 25.1827 10.6035 24.69C10.8706 24.7158 11.1438 24.7285 11.4232 24.728C12.1957 24.7305 12.9631 24.6013 13.6923 24.3462C14.4058 24.0979 15.0753 23.7375 15.6754 23.2785C14.9577 23.2599 14.264 23.0164 13.6923 22.5822C13.1212 22.1632 12.7 21.5716 12.491 20.8948C12.6985 20.9333 12.9091 20.9523 13.1201 20.9517C13.4225 20.952 13.7238 20.9135 14.0164 20.8372C13.5089 20.736 13.0322 20.5173 12.6245 20.1985C12.2087 19.879 11.8725 19.4675 11.6421 18.9964C11.408 18.5247 11.2811 18.007 11.2706 17.4805V17.4236C11.7456 17.7013 12.2839 17.8523 12.834 17.8622C12.3674 17.5493 11.9843 17.1271 11.7181 16.6324C11.4468 16.1333 11.3068 15.5733 11.3113 15.0053C11.3094 14.4029 11.4673 13.8108 11.7689 13.2893C12.6303 14.3455 13.7029 15.2099 14.9179 15.8271C16.133 16.4444 17.4636 16.8009 18.8245 16.8737C18.7734 16.6163 18.7479 16.3545 18.7486 16.0921C18.7433 15.4892 18.9015 14.8962 19.2062 14.3761C19.5074 13.8588 19.9377 13.4284 20.455 13.1273C20.9707 12.8191 21.5607 12.6577 22.1615 12.6602C22.6302 12.6587 23.0942 12.7543 23.5242 12.941C23.9542 13.1277 24.3408 13.4014 24.6598 13.7449C25.4282 13.5951 26.1642 13.311 26.834 12.9056C26.7109 13.3044 26.5135 13.6763 26.2523 14.0019C25.9942 14.3252 25.6812 14.6006 25.3276 14.8154C26.0124 14.7303 26.6807 14.5439 27.3106 14.2622C26.8463 14.9539 26.2649 15.5593 25.5927 16.0513Z" fill="white"/>
</svg>
