<svg xmlns="http://www.w3.org/2000/svg" width="50" height="44.671" viewBox="0 0 50 44.671">
  <g id="heart-svgrepo-com_3_" data-name="heart-svgrepo-com (3)" transform="translate(0.001 -27.283)">
    <g id="Group_35" data-name="Group 35" transform="translate(-0.001 27.283)">
      <g id="Group_34" data-name="Group 34" transform="translate(0 0)">
        <path id="Path_72" data-name="Path 72" d="M122.032,40.417l0,0A7.7,7.7,0,0,0,111.14,29.539L108.29,32.39l-2.851-2.851A7.7,7.7,0,0,0,94.554,40.424L105.9,51.766a3.388,3.388,0,0,0,4.786,0l11.348-11.348Zm-1.555-1.539h0l-11.34,11.34a1.2,1.2,0,0,1-1.692,0L96.1,38.877a5.509,5.509,0,0,1,7.791-7.791l3.624,3.624a1.094,1.094,0,0,0,1.547,0l3.624-3.624a5.509,5.509,0,1,1,7.791,7.791Z" transform="translate(-83.289 -27.283)" fill="#ea1584"/>
        <path id="Path_73" data-name="Path 73" d="M19.974,169.855,9.928,165.018l-1.993-9.24a4.011,4.011,0,1,0-7.842,1.691L2.5,168.626a3.985,3.985,0,0,0,2.181,2.768l9.543,4.595v7.222a1.825,1.825,0,0,0,1.823,1.823h4.376a1.825,1.825,0,0,0,1.823-1.823v-9.742A4.032,4.032,0,0,0,19.974,169.855Zm.083,12.992H16.411V175.3a1.094,1.094,0,0,0-.619-.986L5.63,169.423a1.812,1.812,0,0,1-.991-1.258L2.232,157.008a1.823,1.823,0,1,1,3.564-.769L7.9,166a1.094,1.094,0,0,0,.595.755l10.528,5.069a1.833,1.833,0,0,1,1.032,1.643v9.378Z" transform="translate(0.001 -140.363)" fill="#ea1584"/>
        <path id="Path_74" data-name="Path 74" d="M300.254,153.251a3.985,3.985,0,0,0-1.747,2.525l-1.993,9.24-10.046,4.837a4.032,4.032,0,0,0-2.271,3.614v9.742a1.825,1.825,0,0,0,1.823,1.823H290.4a1.825,1.825,0,0,0,1.823-1.823v-7.222l9.543-4.595a3.985,3.985,0,0,0,2.181-2.768l2.406-11.157A4.015,4.015,0,0,0,300.254,153.251Zm3.956,3.755L301.8,168.163a1.812,1.812,0,0,1-.991,1.258l-10.162,4.893a1.094,1.094,0,0,0-.619.986v7.545h-3.646v-9.378a1.833,1.833,0,0,1,1.032-1.643l10.528-5.069a1.094,1.094,0,0,0,.595-.755l2.106-9.763a1.823,1.823,0,1,1,3.564.769Z" transform="translate(-256.443 -140.361)" fill="#ea1584"/>
      </g>
    </g>
  </g>
</svg>
