<svg width="26" height="26" viewBox="0 0 26 26" fill="none" xmlns="http://www.w3.org/2000/svg">
<path d="M0.898438 0H25.8984V25.9382H0.898438V0Z" fill="#EC038D"/>
<path d="M13.3985 10.5391C12.9369 10.5391 12.4856 10.6811 12.1018 10.9472C11.718 11.2133 11.4188 11.5915 11.2421 12.034C11.0655 12.4765 11.0192 12.9634 11.1093 13.4332C11.1994 13.903 11.4217 14.3345 11.7481 14.6731C12.0745 15.0118 12.4904 15.2425 12.9432 15.3359C13.396 15.4293 13.8653 15.3814 14.2918 15.1981C14.7183 15.0148 15.0828 14.7044 15.3393 14.3062C15.5957 13.9079 15.7326 13.4397 15.7326 12.9607C15.7326 12.3185 15.4867 11.7025 15.049 11.2484C14.6113 10.7942 14.0176 10.5391 13.3985 10.5391ZM13.3985 14.5326C13.0988 14.5326 12.8058 14.4404 12.5566 14.2676C12.3073 14.0948 12.1131 13.8492 11.9984 13.5619C11.8837 13.2745 11.8537 12.9584 11.9122 12.6534C11.9708 12.3483 12.1151 12.0682 12.3271 11.8483C12.5391 11.6284 12.8092 11.4787 13.1032 11.4181C13.3972 11.3575 13.7019 11.3887 13.9788 11.5078C14.2557 11.6268 14.4924 11.8284 14.6588 12.0871C14.8253 12.3457 14.9141 12.6497 14.914 12.9607C14.914 13.3777 14.7543 13.7777 14.4701 14.0725C14.1859 14.3674 13.8005 14.5331 13.3985 14.5331V14.5326Z" fill="#FAFAFA"/>
<path d="M17.9172 11.0216C17.9098 10.6305 17.8384 10.2434 17.7062 9.87703C17.5919 9.56251 17.4131 9.27753 17.1822 9.04182C16.9552 8.80191 16.6804 8.61633 16.3772 8.49806C16.024 8.36082 15.651 8.28682 15.274 8.27924C14.789 8.25566 14.634 8.25 13.399 8.25C12.164 8.25 12.0094 8.25519 11.5244 8.27877C11.1474 8.28644 10.7744 8.36043 10.4212 8.49759C10.1182 8.61607 9.84363 8.80162 9.6167 9.04135C9.38515 9.27684 9.20611 9.56208 9.09215 9.87703C8.95995 10.2434 8.88864 10.6305 8.88124 11.0216C8.85897 11.5243 8.85352 11.6852 8.85352 12.966C8.85352 14.2469 8.85852 14.4077 8.88124 14.9104C8.88865 15.3016 8.95996 15.6886 9.09215 16.055C9.20606 16.3697 9.38494 16.6548 9.61624 16.8902C9.84351 17.1301 10.1183 17.3158 10.4217 17.4345C10.7749 17.5716 11.1479 17.6456 11.5249 17.6533C12.0099 17.6764 12.1649 17.6821 13.399 17.6821C14.6331 17.6821 14.7885 17.6769 15.2731 17.6533C15.6501 17.6456 16.0231 17.5716 16.3762 17.4345C16.6782 17.3133 16.9525 17.128 17.1815 16.8905C17.4104 16.6529 17.589 16.3684 17.7058 16.055C17.8381 15.6887 17.9095 15.3016 17.9167 14.9104C17.939 14.4072 17.944 14.2469 17.944 12.966C17.944 11.6852 17.939 11.5243 17.9172 11.0216ZM17.099 14.8718C17.0961 15.171 17.0439 15.4676 16.9444 15.7485C16.8688 15.9522 16.7529 16.1372 16.6042 16.2915C16.4554 16.4458 16.2771 16.5661 16.0808 16.6445C15.8105 16.7485 15.525 16.8034 15.2367 16.8068C14.7576 16.8294 14.6135 16.8341 13.3999 16.8341C12.1862 16.8341 12.0426 16.8294 11.5635 16.8068C11.2745 16.8036 10.9882 16.7487 10.7172 16.6445C10.5198 16.5688 10.3412 16.4483 10.1944 16.2918C10.0429 16.1396 9.92632 15.9539 9.85352 15.7485C9.7533 15.468 9.70041 15.1718 9.69715 14.8727C9.67715 14.3747 9.6717 14.2257 9.6717 12.966C9.6717 11.7064 9.67624 11.5578 9.69806 11.0603C9.7013 10.761 9.75387 10.4645 9.85352 10.1836C9.92649 9.97877 10.0426 9.79347 10.1935 9.64123C10.3402 9.48393 10.5192 9.36302 10.7172 9.28753C10.988 9.18405 11.274 9.12981 11.5626 9.12718C12.0417 9.10407 12.1858 9.09889 13.399 9.09889C14.6122 9.09889 14.7562 9.1036 15.2358 9.12624C15.5243 9.1296 15.81 9.18415 16.0808 9.28753C16.2771 9.36594 16.4554 9.48619 16.6042 9.64054C16.7529 9.79488 16.8688 9.97987 16.9444 10.1836C17.0446 10.464 17.0975 10.7603 17.1008 11.0593C17.1212 11.5578 17.1262 11.7068 17.1262 12.966C17.1262 14.2252 17.1217 14.3742 17.0999 14.8718H17.099Z" fill="#FAFAFA"/>
</svg>
