<svg width="205" height="70" viewBox="0 0 205 70" fill="none" xmlns="http://www.w3.org/2000/svg">
<path d="M90.9251 41.133C90.8754 40.5544 90.7113 39.9915 90.4424 39.4769C90.0942 38.732 89.5917 38.0697 88.968 37.5339C88.2905 36.942 87.4142 36.6282 86.515 36.6553C85.2216 36.7132 83.962 37.087 82.8462 37.744C81.4532 38.498 80.1554 39.4161 78.9805 40.4786C77.8474 41.4771 76.8366 42.6062 75.9691 43.8424C75.3196 44.6486 74.912 45.6224 74.7937 46.6509C74.8217 46.9588 74.9133 47.2576 75.0626 47.5284C75.2119 47.7992 75.4157 48.0361 75.6611 48.2242C76.3172 48.8076 77.0728 49.2684 77.8919 49.5845C78.7471 49.9444 79.6644 50.1337 80.5923 50.1419C82.0399 50.1515 83.4701 49.8248 84.77 49.1876C85.9992 48.601 87.1149 47.8013 88.0652 46.8256C88.9155 45.9544 89.626 44.957 90.1717 43.8687C90.6256 43.025 90.8837 42.09 90.9271 41.133H90.9251ZM93.3487 44.006C93.3409 45.8288 92.7702 47.6046 91.7148 49.0907C90.6727 50.639 89.2912 51.9293 87.6754 52.8635C86.3167 53.7123 84.7592 54.19 83.1583 54.249C81.6644 54.1684 80.2329 53.6237 79.0633 52.6908C77.1706 51.2851 75.3729 49.7559 73.6818 48.1131V69.0958L69.7222 67.0196V34.2802H73.5818V40.316C73.8801 40.0037 74.3793 39.4758 75.0795 38.7326C75.7796 37.9893 76.5838 37.2104 77.492 36.3958C78.4125 35.5687 79.4159 34.8388 80.4862 34.2175C81.406 33.6329 82.465 33.3038 83.5541 33.2642C84.6341 33.3146 85.6844 33.6336 86.6099 34.1923C87.8011 34.8566 88.8927 35.6854 89.8526 36.6543C90.8774 37.6684 91.7302 38.8428 92.3772 40.1312C93.0039 41.3274 93.3389 42.6548 93.3548 44.005L93.3487 44.006ZM95.328 30.3458H66.9512V27.3516H95.328V30.3458Z" fill="#EC038D"/>
<path d="M122.574 30.3439H101.864V46.1875C101.89 47.3093 102.111 48.418 102.519 49.4634C102.88 50.4327 103.49 51.2893 104.288 51.9466C105.064 52.5739 106.037 52.9069 107.034 52.8868C108.409 52.9299 109.768 52.5736 110.944 51.8608C111.963 51.2297 112.826 50.3763 113.469 49.3645C114.038 48.4748 114.48 47.5098 114.782 46.4975C115.012 45.7647 115.144 45.0048 115.176 44.2374V34.4015H120.201V55.4599C119.854 55.262 119.107 54.9072 117.961 54.3955L115.127 53.1342V51.1549C114.323 51.7455 113.489 52.2943 112.629 52.799C111.845 53.2579 111.004 53.6117 110.128 53.8512C109.149 54.0969 108.142 54.2134 107.133 54.1976C105.446 54.1876 103.789 53.7446 102.321 52.9111C100.789 52.0809 99.4939 50.873 98.5595 49.4018C97.6258 47.9677 97.1313 46.2921 97.1367 44.5808V30.3419H94.1465V27.3477H122.574V30.3419" fill="#EC038D"/>
<path d="M144.275 30.3469H131.753V50.241C131.765 50.8524 131.978 51.4429 132.359 51.9214C132.497 52.154 132.69 52.3497 132.921 52.4918C133.152 52.6338 133.413 52.7181 133.684 52.7374C136.14 52.7374 137.369 50.1996 137.37 45.1241L142.343 47.9658C141.59 49.6886 140.461 51.2215 139.04 52.4526C137.486 53.7026 135.527 54.3403 133.535 54.2451C132.429 54.2377 131.345 53.9257 130.405 53.3433C129.484 52.7863 128.709 52.0182 128.145 51.1024C127.614 50.2902 127.322 49.3456 127.301 48.3758V30.3469H122.131V27.3517H127.301V22.3711H131.756V27.3517H144.278V30.3459" fill="#EC038D"/>
<path d="M151.157 27.3517H195.147V30.3459H151.157V37.7724C151.521 37.3755 151.933 36.9392 152.394 36.4595C152.881 35.9605 153.411 35.5056 153.978 35.1003C154.65 34.6329 155.383 34.2592 156.156 33.9895C157.086 33.6649 158.066 33.5059 159.05 33.5199C160.977 33.4881 162.863 34.0734 164.433 35.1902C165.981 36.2921 167.234 37.7586 168.081 39.4598C168.918 41.0396 169.368 42.7953 169.394 44.5828C169.406 46.2812 168.971 47.9529 168.133 49.4301C167.453 50.6945 166.604 51.8602 165.608 52.8949C165.013 53.4976 164.385 54.0674 163.728 54.6015L159.669 52.1779C160.126 51.5918 160.623 51.0375 161.155 50.5187C161.869 49.7938 162.538 49.0255 163.158 48.2183C163.798 47.3448 164.314 46.3876 164.692 45.3735C165.155 44.1471 165.389 42.8467 165.385 41.5361C165.454 40.0312 165.019 38.5464 164.148 37.3169C163.753 36.7898 163.236 36.3668 162.641 36.0845C162.046 35.8021 161.391 35.6688 160.733 35.6961C159.193 35.8069 157.706 36.3092 156.415 37.1553C154.921 38.0512 153.614 39.2278 152.567 40.6201C151.624 41.7503 151.076 43.1579 151.008 44.6282V54.4521L146.382 51.981V30.3469H143.66V27.3517H146.382C146.382 27.3517 146.111 23.693 144.277 22.3711H149.694C149.694 22.3711 151.101 23.7081 151.157 27.3517Z" fill="#EC038D"/>
<path d="M193.568 39.2035C193.508 39.8514 193.316 40.4801 193.004 41.0506C192.691 41.6211 192.264 42.1212 191.75 42.5199C190.847 43.43 189.818 44.2054 188.694 44.8224L184.983 40.6153C186.284 40.5184 187.516 39.9916 188.484 39.1177C188.887 38.8138 189.222 38.4286 189.467 37.9871C189.712 37.5456 189.862 37.0576 189.906 36.5547C189.906 36.21 189.634 35.7936 189.089 35.3055C188.497 34.8027 187.737 34.5422 186.961 34.5764C185.624 34.679 184.353 35.1982 183.326 36.0609C181.931 37.0975 180.758 38.4022 179.874 39.8983C178.971 41.3115 178.479 42.9477 178.452 44.6244V55.1168L173.676 52.6427V34.33H178.482V36.2104C178.943 35.8655 179.432 35.5595 179.944 35.2954C180.881 34.7738 181.864 34.3387 182.881 33.9957C183.967 33.6127 185.11 33.416 186.262 33.4141C187.35 33.4431 188.423 33.6832 189.42 34.121C190.54 34.572 191.543 35.27 192.355 36.1629C193.136 36.9833 193.57 38.0731 193.567 39.2056" fill="#EC038D"/>
<path d="M202.18 54.769L198.023 52.4696V33.3895H202.18V54.769ZM205.001 30.3458H194.93V27.3516H205.001V30.3458Z" fill="#EC038D"/>
<path d="M70.291 19.3906V4.19334H75.4261C76.4417 4.15126 77.4508 4.37362 78.3547 4.83864C79.0819 5.22863 79.6722 5.83197 80.0462 6.5675C80.4077 7.32934 80.5953 8.16204 80.5953 9.00529C80.5953 9.84854 80.4077 10.6812 80.0462 11.4431C79.6774 12.1832 79.0924 12.7938 78.3688 13.1942C77.4716 13.6573 76.4694 13.8796 75.4605 13.8395H71.7755V12.2075H75.3968C76.0777 12.2381 76.755 12.0924 77.363 11.7844C77.8339 11.5273 78.2106 11.1269 78.4385 10.6412C78.6724 10.1266 78.789 9.56645 78.7798 9.00125C78.7896 8.43827 78.673 7.88027 78.4385 7.36832C78.2112 6.88338 77.8304 6.48691 77.3549 6.24031C76.7375 5.93725 76.0537 5.79451 75.3665 5.82526H72.135V19.3906H70.291ZM83.5554 19.3906V4.19334H88.6905C89.7016 4.15302 90.7071 4.36105 91.6191 4.79925C92.3415 5.16135 92.9329 5.73999 93.3106 6.4544C93.686 7.1966 93.8746 8.01919 93.86 8.85078C93.8759 9.67799 93.6872 10.4963 93.3106 11.233C92.9317 11.9386 92.3431 12.5091 91.6262 12.866C90.7193 13.2889 89.7248 13.49 88.7249 13.4527H84.5693V11.7925H88.6653C89.3366 11.8193 90.0056 11.6976 90.6244 11.436C91.0892 11.2313 91.4711 10.8754 91.708 10.4262C91.9467 9.9368 92.0638 9.39707 92.0493 8.8528C92.062 8.30156 91.9451 7.75504 91.708 7.25723C91.4725 6.79403 91.0885 6.42317 90.6173 6.20396C89.995 5.92656 89.3168 5.79695 88.636 5.82526H85.4045V19.3906H83.5554ZM90.7092 12.564L94.4457 19.3906H92.3159L88.635 12.564H90.7092ZM109.745 11.7925C109.781 13.2262 109.484 14.6488 108.876 15.948C108.352 17.0544 107.526 17.9906 106.494 18.6494C105.448 19.2715 104.253 19.5999 103.036 19.5999C101.819 19.5999 100.624 19.2715 99.5778 18.6494C98.5458 17.9905 97.7202 17.0543 97.1955 15.948C96.5882 14.6488 96.2909 13.2262 96.327 11.7925C96.2909 10.3587 96.5882 8.93619 97.1955 7.63694C97.7202 6.53066 98.5458 5.59448 99.5778 4.93558C100.624 4.31342 101.819 3.98502 103.036 3.98502C104.253 3.98502 105.448 4.31342 106.494 4.93558C107.526 5.59435 108.352 6.53057 108.876 7.63694C109.484 8.93614 109.781 10.3587 109.745 11.7925ZM107.964 11.7925C107.999 10.646 107.773 9.50646 107.303 8.45997C106.923 7.6181 106.307 6.90435 105.53 6.40492C104.777 5.94868 103.913 5.70746 103.033 5.70746C102.153 5.70746 101.289 5.94868 100.536 6.40492C99.7614 6.90708 99.1461 7.62005 98.7628 8.45997C98.2981 9.50783 98.0748 10.6467 98.1094 11.7925C98.0748 12.9382 98.2981 14.0771 98.7628 15.125C99.1461 15.9649 99.7614 16.6779 100.536 17.18C101.289 17.6363 102.153 17.8775 103.033 17.8775C103.913 17.8775 104.777 17.6363 105.53 17.18C106.307 16.6806 106.923 15.9669 107.303 15.125C107.775 14.0789 108.002 12.9394 107.969 11.7925H107.964ZM118.657 4.19334H120.498V15.0573C120.523 15.9122 120.34 16.7604 119.964 17.5284C119.629 18.1834 119.104 18.7214 118.457 19.0715C117.749 19.4369 116.96 19.6182 116.164 19.5986C115.399 19.6132 114.64 19.4587 113.942 19.1462C113.32 18.8624 112.791 18.41 112.413 17.8405C112.032 17.2405 111.838 16.5405 111.857 15.8299H113.667C113.658 16.2293 113.769 16.6223 113.986 16.9579C114.211 17.2807 114.519 17.537 114.877 17.7001C115.28 17.884 115.718 17.9755 116.161 17.9677C116.633 17.9821 117.1 17.8664 117.511 17.6335C117.888 17.4035 118.184 17.0609 118.357 16.6539C118.569 16.1493 118.67 15.6053 118.654 15.0583L118.657 4.19334ZM124.185 19.3906V4.19334H133.356V5.82627H126.025V10.9614H132.882V12.5943H126.025V17.7587H133.474V19.3916L124.185 19.3906ZM148.903 8.94268H147.063C146.875 7.97119 146.32 7.10976 145.512 6.53822C145.127 6.2596 144.698 6.04886 144.243 5.91514C143.77 5.77553 143.281 5.70545 142.788 5.70711C141.905 5.69687 141.038 5.93896 140.288 6.40492C139.513 6.90708 138.898 7.62005 138.515 8.45997C138.05 9.50783 137.827 10.6467 137.861 11.7925C137.827 12.9382 138.05 14.0771 138.515 15.125C138.898 15.9649 139.513 16.6779 140.288 17.18C141.038 17.646 141.905 17.8881 142.788 17.8779C143.281 17.8795 143.77 17.8094 144.243 17.6698C144.697 17.5365 145.126 17.3283 145.512 17.0538C146.318 16.4772 146.872 15.6145 147.063 14.6423H148.903C148.78 15.3777 148.523 16.0844 148.146 16.7276C147.79 17.3286 147.327 17.8592 146.78 18.2929C146.231 18.7214 145.61 19.0505 144.947 19.2654C144.25 19.4919 143.521 19.6048 142.788 19.5996C141.569 19.6206 140.368 19.2908 139.331 18.6494C138.298 17.9906 137.473 17.0544 136.948 15.948C136.341 14.6488 136.044 13.2262 136.08 11.7925C136.044 10.3587 136.341 8.93619 136.948 7.63694C137.473 6.53057 138.298 5.59435 139.331 4.93558C140.368 4.29421 141.569 3.96438 142.788 3.98531C143.521 3.98017 144.25 4.09303 144.947 4.31957C145.612 4.53494 146.232 4.86662 146.78 5.29913C147.328 5.729 147.791 6.25746 148.146 6.85733C148.524 7.49983 148.781 8.20683 148.903 8.94268ZM151.046 5.82627V4.19334H162.444V5.82627H157.665V19.3906H155.826V5.82627H151.046Z" fill="#6C2794"/>
<path d="M54.4375 32.9336C54.4688 33.9313 54.4375 35.4249 54.4375 35.9975C54.4375 36.5701 54.0709 37.3608 55.6604 39.2623C57.2499 41.1639 57.772 42.0899 57.8043 42.7403C57.8518 43.3886 54.7748 43.8208 54.7748 43.8208C54.7748 43.8208 54.2395 44.4772 54.8323 44.9145C55.4251 45.3517 55.3372 45.4103 55.412 45.6214C55.6564 46.194 54.8778 46.297 54.8778 46.5878C55.3655 47.1038 55.5725 46.9726 55.5534 47.6391C55.5534 48.4944 54.0992 48.0804 54.1759 49.2144C54.2082 49.993 54.9545 51.7199 54.0335 52.7489C53.1136 53.7588 50.3647 53.2942 48.8631 52.6318C47.3614 51.9693 45.168 51.633 44.2864 53.6739C43.4301 55.7088 43.8997 59.7664 44.962 63.1908C45.3619 64.864 46.1051 66.4359 47.1443 67.8068C43.4464 68.131 39.7205 67.8551 36.1107 66.9898C32.9012 66.2463 29.9503 64.6546 27.5663 62.3809C27.8785 62.1326 28.1749 61.8651 28.454 61.5801C30.6193 59.4442 31.8841 56.5601 31.9885 53.5204C32.1157 47.8552 31.737 49.6063 29.8001 48.1682C27.8632 46.7302 21.8223 41.486 21.8223 35.1411C21.8223 28.7659 26.8806 25.8505 34.4262 23.1602C41.9648 20.4831 54.0719 19.6621 54.4324 32.9457" fill="#EC038D"/>
<path d="M27.3411 27.0616C27.3411 27.0616 22.3241 25.5468 22.2282 30.6536C22.2282 30.6536 16.8325 31.509 19.0088 35.4827C19.0088 35.4827 19.7743 35.8604 18.4867 36.43C17.1991 36.9995 17.3021 40.2149 17.9727 40.8794C17.9727 40.8794 18.822 41.2581 17.9727 42.2932C17.1234 43.3283 16.2559 45.3227 17.496 46.8325C17.496 46.8325 18.6351 47.0193 17.9727 48.2543C17.3102 49.4894 16.8315 50.5215 18.3514 51.2839C18.3514 51.2839 19.2976 52.0433 18.6351 52.7068C17.9727 53.3702 17.3991 54.2135 18.822 55.5404C18.822 55.5404 19.7621 55.7333 19.4844 56.5836C19.2067 57.4339 19.6197 58.9456 22.11 60.3685C22.11 60.3685 23.2209 62.6356 22.11 62.8295C21.4322 62.94 20.7409 62.94 20.0631 62.8295L21.5698 64.623C22.3907 64.673 23.2139 64.673 24.0348 64.623C24.4983 64.5332 24.3125 62.8295 24.3125 62.8295C24.3125 62.8295 23.1795 60.8452 23.8359 60.2726C24.4923 59.7 25.5385 56.6785 23.6501 56.5775C23.6501 56.5775 22.9886 56.1978 23.5551 55.7272C24.1217 55.2566 25.0699 53.4601 23.1754 53.4601C23.1754 53.4601 22.7048 53.0814 23.3683 52.6048C24.0318 52.1281 25.0669 49.855 23.9359 49.759C22.8048 49.6631 23.2714 48.9168 23.8349 48.0665C24.4145 47.2101 24.7882 43.8039 23.4612 43.4212C23.4612 43.4212 22.2322 42.2902 23.0825 41.6317C23.9399 40.9571 25.3547 38.3103 23.3713 37.2671C23.3713 37.2671 22.3282 36.5199 22.9926 36.1412C23.7444 35.7153 24.3688 35.0962 24.8009 34.348C25.2331 33.5998 25.4574 32.7497 25.4506 31.8856L27.3451 32.0704L29.0427 32.5471C29.0427 32.5471 30.2737 31.0323 30.2737 30.3648C30.2737 29.6973 30.3747 26.3931 27.3451 27.0565" fill="#EC038D"/>
<path d="M31.8548 21.1326L0 13.2224L34.6713 0.90625L65.7171 6.32512L31.8548 21.1326Z" fill="#6C2794"/>
<path d="M51.2231 13.7617L52.9398 22.3889C53.0112 22.9608 52.9123 23.541 52.6554 24.0569C52.3985 24.5728 51.9951 25.0015 51.4957 25.2892C49.7851 26.2334 35.3209 33.4205 22.1888 28.9994C22.1888 28.9994 21.1133 29.1004 20.7266 27.4563C20.3398 25.8123 19.4824 19.8208 19.4824 19.8208L31.5693 22.4788L51.2231 13.7617Z" fill="#6C2794"/>
<path d="M57.4309 9.94922L58.3397 13.8876C58.3397 13.8876 60.3029 14.6895 58.7972 17.1909C58.7972 17.1909 63.2628 27.8731 62.6347 28.2104C62.0045 28.5709 62.257 28.4043 60.9946 28.5335C60.0203 28.5526 59.052 28.6913 58.1115 28.9466C57.8368 29.1485 56.9189 29.5636 56.8623 28.5234C56.8058 27.4833 57.4925 18.0351 57.6005 17.5625C57.7086 17.0899 55.493 16.5405 57.3107 13.8937L56.7674 10.2431L57.4248 9.95527" fill="#6C2794"/>
<path d="M22.3501 59.7723L19.2055 58.1455C19.2055 58.1455 18.3067 57.8011 18.0724 58.1737C17.6107 59.0912 17.366 60.1025 17.3574 61.1296C17.5099 61.8698 17.8411 61.7204 18.7793 61.5083C19.7175 61.2962 21.9341 60.6136 21.9341 60.6136C21.9341 60.6136 22.3037 61.2427 23.1085 60.6358C23.1085 60.6358 23.3792 60.4237 23.5024 60.562C23.6256 60.7004 26.6572 62.3555 26.6572 62.3555C26.6572 62.3555 27.4448 62.6191 27.5842 62.0243C27.7236 61.4295 28.0366 58.505 28.0366 58.505C28.0366 58.505 27.9477 57.174 26.8056 57.4315C25.3374 57.9399 23.9673 58.6965 22.7551 59.6683C22.6848 59.6443 22.609 59.6413 22.5371 59.6598C22.4651 59.6783 22.4001 59.7174 22.3501 59.7723Z" fill="#6C2794"/>
<path d="M23.1342 60.0312C23.1342 60.0312 25.9214 62.8649 25.9366 63.5072C25.9517 64.1494 25.4771 63.4809 24.9792 63.7253C24.4814 63.9697 24.0704 64.1898 24.0704 64.1898L22.8242 60.3817L23.1342 60.0312Z" fill="#6C2794"/>
<path d="M22.8604 60.1797C22.8604 60.1797 20.2712 62.055 20.1702 62.564C20.0692 63.0729 20.5388 62.6053 20.9003 62.8669C21.2618 63.1285 21.5577 63.3577 21.5577 63.3577L23.0553 60.5008L22.8604 60.1797Z" fill="#6C2794"/>
<path d="M202.187 22.3699C202.193 22.6302 202.147 22.889 202.051 23.1312C201.956 23.3734 201.813 23.5941 201.631 23.7802C201.449 23.9664 201.231 24.1143 200.991 24.2153C200.751 24.3163 200.494 24.3684 200.233 24.3684C199.973 24.3684 199.715 24.3163 199.475 24.2153C199.235 24.1143 199.018 23.9664 198.836 23.7802C198.654 23.5941 198.511 23.3734 198.416 23.1312C198.32 22.889 198.274 22.6302 198.28 22.3699C198.28 21.2903 199.266 14.8626 200.233 14.5859C201.106 15.1696 202.187 21.2903 202.187 22.3699Z" fill="#EC038D"/>
</svg>
