<?xml version="1.0" encoding="utf-8"?>
<!-- Generator: Adobe Illustrator 26.3.1, SVG Export Plug-In . SVG Version: 6.00 Build 0)  -->
<svg version="1.1" id="Layer_1" xmlns="http://www.w3.org/2000/svg" xmlns:xlink="http://www.w3.org/1999/xlink" x="0px" y="0px"
	 viewBox="0 0 180 180" style="enable-background:new 0 0 180 180;" xml:space="preserve">
<style type="text/css">
	.st0{fill:#EC008C;}
</style>
<g>
	<path class="st0" d="M180,48.19c-10.1,5.74-20.2,11.48-30.29,17.25c-1.78,1.02-3.63,0.91-5.51,0.59
		c-8.22-1.43-15.88,0.4-23.05,4.31c-10.08,5.5-20.02,11.26-30.06,16.83c-2.05,1.13-3.1,2.51-3.59,4.91
		c-1.95,9.58-10.81,15.1-19.68,12.53c-8.4-2.43-13.39-11.75-10.65-19.89c3.01-8.95,12.13-13.05,21.34-9.4
		c1.99,0.79,3.52,0.7,5.31-0.31c10.23-5.79,20.53-11.45,30.75-17.27c7.28-4.15,12.65-10.07,15.7-17.94c0.61-1.57,1.47-2.8,3-3.64
		c8.98-4.98,17.91-10.05,26.89-15.02c0.97-0.54,2.12-1.75,3.24-0.71c0.87,0.8,0.06,2.08-0.18,3.08c-1.2,4.99-2.45,9.97-3.82,14.91
		c-0.61,2.22-0.37,3.44,2.22,4.05c6.17,1.47,12.27,3.26,18.39,4.91C180,47.65,180,47.92,180,48.19z"/>
	<path class="st0" d="M144.09,89.53c-0.49,37.62-27.45,67.62-63.7,71.86C41.25,165.96,5.83,138.28,0.6,99.02
		c-5.16-38.75,23.52-75.67,62.27-80.33c20.26-2.44,38.21,2.9,54.33,15.2c2.87,2.19,3.44,4.23,1.2,7.03
		c-0.84,1.05-1.64,2.16-2.56,3.13c-4.04,4.28-4.09,4.27-8.85,0.64C72.65,18.5,22.5,38.25,15.61,80.71
		c-5.1,31.41,15.8,60.23,47.75,65.84c29.87,5.25,59.51-15.81,65.05-46.34c1.09-6,1.55-12.1,0.23-18.14
		c-0.75-3.42,0.59-5.1,3.86-5.64c0.8-0.13,1.57-0.42,2.37-0.57c6.75-1.29,8.22-0.2,8.78,6.55
		C143.87,85.12,143.98,87.82,144.09,89.53z"/>
	<path class="st0" d="M73.01,133.71c-24.95,0.14-45.17-19.57-44.75-43.7c0.28-16.41,7.54-29.55,21.97-37.83
		c14.39-8.25,29.16-7.99,43.71-0.05c4.7,2.56,4.62,3.04,0.03,5.7c-1.05,0.61-2.13,1.17-3.16,1.82c-3.97,2.51-7.7,3.35-12.8,2.19
		C62.07,58.21,47.6,68,43.77,84c-3.5,14.59,5.58,29.52,20.6,33.89c15.69,4.57,32.37-5.24,35.85-21.22c0.57-2.63,1.73-4.38,4.12-5.55
		c2.55-1.25,4.97-2.74,7.47-4.08c3.46-1.84,4.25-1.45,4.12,2.64c-0.58,18.05-8.75,31.46-24.9,39.73
		C85.2,132.4,78.92,134.01,73.01,133.71z"/>
</g>
</svg>
