<svg id="people_black_24dp" xmlns="http://www.w3.org/2000/svg" width="50" height="50" viewBox="0 0 50 50">
  <path id="Path_164" data-name="Path 164" d="M0,0H50V50H0Z" fill="none"/>
  <path id="Path_165" data-name="Path 165" d="M16.583,23.229C11.708,23.229,2,25.667,2,30.521v3.646H31.167V30.521C31.167,25.667,21.458,23.229,16.583,23.229ZM6.875,30a20.087,20.087,0,0,1,9.708-2.6A20.087,20.087,0,0,1,26.292,30Zm9.708-10.417a7.292,7.292,0,1,0-7.292-7.292A7.3,7.3,0,0,0,16.583,19.583Zm0-10.417a3.125,3.125,0,1,1-3.125,3.125A3.121,3.121,0,0,1,16.583,9.167ZM31.25,23.354c2.417,1.75,4.083,4.083,4.083,7.167v3.646h8.333V30.521C43.667,26.312,36.375,23.917,31.25,23.354Zm-2.167-3.771A7.292,7.292,0,0,0,29.083,5a7.178,7.178,0,0,0-3.125.729,11.378,11.378,0,0,1,0,13.125A7.178,7.178,0,0,0,29.083,19.583Z" transform="translate(2.167 5.417)" fill="#ea1584"/>
</svg>
