<svg xmlns="http://www.w3.org/2000/svg" width="50" height="50.652" viewBox="0 0 50 50.652">
  <g id="school-svgrepo-com" transform="translate(-2.85 0.001)">
    <path id="Path_88" data-name="Path 88" d="M52.482,20.133l-15.313-5.84v-.119h1.192a.572.572,0,0,0,.348-1.027L28.422,5.272V3.965a9.23,9.23,0,0,1,2.869.11,15.183,15.183,0,0,0,2.113.2,6.013,6.013,0,0,0,1.642-.212.572.572,0,0,0,.417-.551V.762a.572.572,0,0,0-.727-.551A7.949,7.949,0,0,1,31.451.2,9.956,9.956,0,0,0,28.133.108c-.145.028-.455.109-.463.114a.57.57,0,0,0-.391.54v4.51L16.992,13.146a.572.572,0,0,0,.348,1.027h1.192v.119L3.218,20.133a.572.572,0,0,0-.368.535v1.925a.572.572,0,0,0,.776.535l1-.383v22.2H4.277a.572.572,0,0,0-.572.572V50.08a.572.572,0,0,0,.572.572H51.422a.572.572,0,0,0,.572-.572V45.52a.572.572,0,0,0-.572-.572h-.352v-22.2l1,.383a.572.572,0,0,0,.776-.535V20.667A.572.572,0,0,0,52.482,20.133ZM28.168,31.92a.572.572,0,0,0-.635,0l-8.989,5.992V37.1l9.306-6.2,9.306,6.2v.815Zm4.361-17.748V16.1a.572.572,0,0,0,.572.572h.053V33.054L28.168,29.73a.572.572,0,0,0-.635,0l-4.987,3.324V16.667H22.6a.572.572,0,0,0,.572-.572V14.173h9.356Zm3.5,1.35H33.673v-1.35h2.352Zm-14,0H19.676v-1.35h2.352v1.35ZM20.3,16.667h1.1v17.15l-1.1.734Zm14,17.15V16.667h1.1V34.551ZM19.028,13.029l.628-.481h4.364a.572.572,0,0,0,0-1.144h-2.87l.747-.572h1.779a.572.572,0,0,0,0-1.144h-.284L27.85,6.275l8.822,6.753Zm12.263-11.7a10.812,10.812,0,0,0,3.028.135V3.052a9.234,9.234,0,0,1-2.869-.11,10.821,10.821,0,0,0-3.028-.135V1.218A9.234,9.234,0,0,1,31.292,1.329ZM3.994,21.061l14.537-5.544v.7L3.994,21.761Zm1.78,1.246,13.383-5.1V35.314l-1.5,1a.572.572,0,0,0-.255.476v2.19a.572.572,0,0,0,.89.476l.909-.606v3.217h-.451a.572.572,0,0,0-.572.572v2.307H5.774ZM4.85,49.116H9.375a.572.572,0,0,0,0-1.144H4.85v-.343H7.315a.572.572,0,1,0,0-1.144H4.85v-.392H18.175v.392H15.71a.572.572,0,1,0,0,1.144h2.465v.343H17.041a.572.572,0,0,0,0,1.144h1.134v.391H4.85Zm15.11.392h-.641V43.213h.641ZM21.1,44.773H34.6v.655H21.1Zm11.453-1.144H31.3V39.254h1.255Zm-2.4,0H28.422V39.254h1.735Zm-2.879,0H25.543V39.254h1.735Zm-2.879,0H23.144V39.254H24.4ZM21.1,46.572H34.6v.775H21.1Zm0,1.92H34.6v1.015H21.1ZM34.6,42.641v.988h-.9V38.682a.572.572,0,0,0-.572-.572H22.571a.572.572,0,0,0-.572.572v4.947h-.9v-.988a.572.572,0,0,0-.572-.572h-.189v-3.98l2.572-1.715h5.912a.572.572,0,1,0,0-1.144h-4.2l.977-.651H27a.571.571,0,0,0,.244-1.088l.61-.407,7.508,5v3.98h-.189A.572.572,0,0,0,34.6,42.641Zm1.785,6.867h-.641V43.213h.641Zm1.144,0v-.391h1.134a.572.572,0,1,0,0-1.144H37.526v-.343h2.465a.572.572,0,1,0,0-1.144H37.526v-.392H50.85v.392H48.385a.572.572,0,1,0,0,1.144H50.85v.343H46.325a.572.572,0,1,0,0,1.144H50.85v.391Zm12.4-4.559h-12.4V42.641a.572.572,0,0,0-.572-.572H36.5V38.852l.909.606a.572.572,0,0,0,.89-.476v-2.19a.572.572,0,0,0-.255-.476l-1.5-1V17.2l13.384,5.1V44.948Zm1.779-23.187L37.169,16.217v-.7l14.537,5.544Z" fill="#ea1584"/>
    <path id="Path_89" data-name="Path 89" d="M207.1,143.274a1.776,1.776,0,0,0-1.774,1.774v2.638a.572.572,0,0,0,.572.572h2.52a.572.572,0,0,0,.572-.572v-2.638a1.776,1.776,0,0,0-1.774-1.774Zm.746,1.774v2.066h-1.375v-2.066a.63.63,0,0,1,.629-.629h.117A.63.63,0,0,1,207.843,145.048Z" transform="translate(-179.306 -126.88)" fill="#ea1584"/>
    <path id="Path_90" data-name="Path 90" d="M207.213,200H207.1a1.776,1.776,0,0,0-1.774,1.774v2.638a.572.572,0,0,0,.572.572h2.52a.572.572,0,0,0,.572-.572v-2.638A1.776,1.776,0,0,0,207.213,200Zm.629,3.839h-1.375v-2.066a.63.63,0,0,1,.629-.629h.117a.63.63,0,0,1,.629.629Z" transform="translate(-179.305 -177.113)" fill="#ea1584"/>
    <path id="Path_91" data-name="Path 91" d="M43.483,209.071H46a.572.572,0,0,0,.572-.572v-2.638a1.776,1.776,0,0,0-1.774-1.774h-.117a1.776,1.776,0,0,0-1.774,1.774V208.5A.572.572,0,0,0,43.483,209.071Zm.572-3.21a.63.63,0,0,1,.629-.629H44.8a.63.63,0,0,1,.629.629v2.066H44.055Z" transform="translate(-35.477 -180.735)" fill="#ea1584"/>
    <path id="Path_92" data-name="Path 92" d="M92.048,204.087h-.117a1.776,1.776,0,0,0-1.774,1.774V208.5a.572.572,0,0,0,.572.572h2.52a.572.572,0,0,0,.572-.572v-2.638A1.776,1.776,0,0,0,92.048,204.087Zm.629,3.839H91.3v-2.066a.63.63,0,0,1,.629-.629h.117a.63.63,0,0,1,.629.629Z" transform="translate(-77.318 -180.735)" fill="#ea1584"/>
    <path id="Path_93" data-name="Path 93" d="M43.483,273.03H46a.572.572,0,0,0,.572-.572V269.82a1.776,1.776,0,0,0-1.774-1.774h-.117a1.776,1.776,0,0,0-1.774,1.774v2.638A.572.572,0,0,0,43.483,273.03Zm.572-3.21a.63.63,0,0,1,.629-.629H44.8a.63.63,0,0,1,.629.629v2.066H44.055Z" transform="translate(-35.477 -237.375)" fill="#ea1584"/>
    <path id="Path_94" data-name="Path 94" d="M92.048,268.045h-.117a1.776,1.776,0,0,0-1.774,1.774v2.638a.572.572,0,0,0,.572.572h2.52a.572.572,0,0,0,.572-.572v-2.638A1.776,1.776,0,0,0,92.048,268.045Zm.629,3.839H91.3v-2.066a.63.63,0,0,1,.629-.629h.117a.63.63,0,0,1,.629.629Z" transform="translate(-77.318 -237.374)" fill="#ea1584"/>
    <path id="Path_95" data-name="Path 95" d="M43.483,336.988H46a.572.572,0,0,0,.572-.572v-2.638A1.776,1.776,0,0,0,44.8,332h-.117a1.776,1.776,0,0,0-1.774,1.774v2.638A.572.572,0,0,0,43.483,336.988Zm.572-3.21a.63.63,0,0,1,.629-.629H44.8a.63.63,0,0,1,.629.629v2.066H44.055Z" transform="translate(-35.477 -294.014)" fill="#ea1584"/>
    <path id="Path_96" data-name="Path 96" d="M92.048,332h-.117a1.776,1.776,0,0,0-1.774,1.774v2.638a.572.572,0,0,0,.572.572h2.52a.572.572,0,0,0,.572-.572v-2.638A1.776,1.776,0,0,0,92.048,332Zm.629,3.839H91.3v-2.066a.63.63,0,0,1,.629-.629h.117a.63.63,0,0,1,.629.629Z" transform="translate(-77.318 -294.014)" fill="#ea1584"/>
    <path id="Path_97" data-name="Path 97" d="M368.309,209.071h2.52a.572.572,0,0,0,.572-.572v-2.638a1.776,1.776,0,0,0-1.774-1.774h-.117a1.776,1.776,0,0,0-1.774,1.774V208.5A.572.572,0,0,0,368.309,209.071Zm.572-3.21a.63.63,0,0,1,.629-.629h.117a.63.63,0,0,1,.629.629v2.066h-1.375Z" transform="translate(-323.134 -180.735)" fill="#ea1584"/>
    <path id="Path_98" data-name="Path 98" d="M322.262,204.087a1.776,1.776,0,0,0-1.774,1.774V208.5a.572.572,0,0,0,.572.572h2.52a.572.572,0,0,0,.572-.572v-2.638a1.776,1.776,0,0,0-1.774-1.774Zm.746,1.774v2.066h-1.375v-2.066a.63.63,0,0,1,.629-.629h.117A.63.63,0,0,1,323.008,205.861Z" transform="translate(-281.292 -180.735)" fill="#ea1584"/>
    <path id="Path_99" data-name="Path 99" d="M369.626,268.045h-.117a1.776,1.776,0,0,0-1.774,1.774v2.638a.572.572,0,0,0,.572.572h2.52a.572.572,0,0,0,.572-.572v-2.638A1.776,1.776,0,0,0,369.626,268.045Zm.629,3.839H368.88v-2.066a.63.63,0,0,1,.629-.629h.117a.63.63,0,0,1,.629.629Z" transform="translate(-323.133 -237.374)" fill="#ea1584"/>
    <path id="Path_100" data-name="Path 100" d="M322.378,268.045h-.117a1.776,1.776,0,0,0-1.774,1.774v2.638a.572.572,0,0,0,.572.572h2.52a.572.572,0,0,0,.572-.572v-2.638A1.776,1.776,0,0,0,322.378,268.045Zm.629,3.839h-1.375v-2.066a.63.63,0,0,1,.629-.629h.117a.63.63,0,0,1,.629.629Z" transform="translate(-281.292 -237.374)" fill="#ea1584"/>
    <path id="Path_101" data-name="Path 101" d="M369.626,332h-.117a1.776,1.776,0,0,0-1.774,1.774v2.638a.572.572,0,0,0,.572.572h2.52a.572.572,0,0,0,.572-.572v-2.638A1.776,1.776,0,0,0,369.626,332Zm.629,3.839H368.88v-2.066a.63.63,0,0,1,.629-.629h.117a.63.63,0,0,1,.629.629Z" transform="translate(-323.133 -294.014)" fill="#ea1584"/>
    <path id="Path_102" data-name="Path 102" d="M322.378,332h-.117a1.776,1.776,0,0,0-1.774,1.774v2.638a.572.572,0,0,0,.572.572h2.52a.572.572,0,0,0,.572-.572v-2.638A1.776,1.776,0,0,0,322.378,332Zm.629,3.839h-1.375v-2.066a.63.63,0,0,1,.629-.629h.117a.63.63,0,0,1,.629.629Z" transform="translate(-281.292 -294.014)" fill="#ea1584"/>
    <path id="Path_103" data-name="Path 103" d="M203.751,75.036a2.012,2.012,0,1,0,2.012-2.012A2.014,2.014,0,0,0,203.751,75.036Zm2.879,0a.868.868,0,1,1-.868-.868A.869.869,0,0,1,206.63,75.036Z" transform="translate(-177.913 -64.669)" fill="#ea1584"/>
    <path id="Path_104" data-name="Path 104" d="M185.443,127.805H189.1a.572.572,0,1,0,0-1.144h-3.662a.572.572,0,1,0,0,1.144Z" transform="translate(-161.193 -112.168)" fill="#ea1584"/>
    <path id="Path_105" data-name="Path 105" d="M122.205,161.805h1.259a.572.572,0,1,0,0-1.144h-1.259a.572.572,0,1,0,0,1.144Z" transform="translate(-105.191 -142.278)" fill="#ea1584"/>
    <path id="Path_106" data-name="Path 106" d="M105.105,175.805h3.215a.572.572,0,1,0,0-1.144h-3.215a.572.572,0,1,0,0,1.144Z" transform="translate(-90.048 -154.676)" fill="#ea1584"/>
    <path id="Path_107" data-name="Path 107" d="M300.605,161.805h1.259a.572.572,0,1,0,0-1.144h-1.259a.572.572,0,0,0,0,1.144Z" transform="translate(-263.177 -142.278)" fill="#ea1584"/>
    <path id="Path_108" data-name="Path 108" d="M300.033,175.233a.572.572,0,0,0,.572.572h3.215a.572.572,0,0,0,0-1.144h-3.215A.572.572,0,0,0,300.033,175.233Z" transform="translate(-263.177 -154.676)" fill="#ea1584"/>
    <path id="Path_109" data-name="Path 109" d="M33.971,379.661H31.443a.572.572,0,0,0,0,1.144h2.528a.572.572,0,1,0,0-1.144Z" transform="translate(-24.815 -336.218)" fill="#ea1584"/>
    <path id="Path_110" data-name="Path 110" d="M66.445,379.66a.572.572,0,1,0,.4.167A.576.576,0,0,0,66.445,379.66Z" transform="translate(-55.811 -336.217)" fill="#ea1584"/>
    <path id="Path_111" data-name="Path 111" d="M235.2,190.9a.572.572,0,0,0,.572.572h.992a.572.572,0,0,0,0-1.144h-.992A.572.572,0,0,0,235.2,190.9Z" transform="translate(-205.766 -168.553)" fill="#ea1584"/>
    <path id="Path_112" data-name="Path 112" d="M243.2,203.236a.572.572,0,0,0,.572.572h.992a.572.572,0,0,0,0-1.144h-.992A.572.572,0,0,0,243.2,203.236Z" transform="translate(-212.851 -179.474)" fill="#ea1584"/>
    <path id="Path_113" data-name="Path 113" d="M182.443,245.475h.992a.572.572,0,0,0,0-1.144h-.992a.572.572,0,1,0,0,1.144Z" transform="translate(-158.536 -216.374)" fill="#ea1584"/>
    <path id="Path_114" data-name="Path 114" d="M359.776,257.475h.992a.572.572,0,1,0,0-1.144h-.992a.572.572,0,0,0,0,1.144Z" transform="translate(-315.578 -227.001)" fill="#ea1584"/>
  </g>
</svg>
