<svg xmlns="http://www.w3.org/2000/svg" width="50" height="46.4" viewBox="0 0 50 46.4">
  <g id="school-svgrepo-com_1_" data-name="school-svgrepo-com (1)" transform="translate(0 -1.146)">
    <path id="Path_79" data-name="Path 79" d="M48.2,42.143V21.872l-20.764-8.72V9.2h2.012V11h7.1V4.749h-3.6v-1.8h-5.51V2.933a1.8,1.8,0,0,0-3.6,0V12.964L1.8,21.872V42.143H0v5.4H21.187V34.2h8.895V47.546H50v-5.4H48.2ZM12.077,34.2H16.95v4.769H12.077Zm-7.732,0H9.322v4.769H4.345ZM25,27.044a3.5,3.5,0,1,1,3.5-3.5A3.5,3.5,0,0,1,25,27.044ZM41.1,34.2h4.978v4.769H41.1Zm-7.733,0h4.98v4.769h-4.98Z" transform="translate(0 0)" fill="#ea1584"/>
  </g>
</svg>
