<?xml version="1.0" encoding="utf-8"?>
<!-- Generator: Adobe Illustrator 26.3.1, SVG Export Plug-In . SVG Version: 6.00 Build 0)  -->
<svg version="1.1" id="Layer_1" xmlns="http://www.w3.org/2000/svg" xmlns:xlink="http://www.w3.org/1999/xlink" x="0px" y="0px"
	 viewBox="0 0 1963.08 855.38" style="enable-background:new 0 0 1963.08 855.38;" xml:space="preserve">
<style type="text/css">
	.st0{fill:#FEC695;}
	.st1{fill:#521B66;}
	.st2{fill:#8C480B;}
	.st3{fill:#0F0802;}
	.st4{fill:#F50088;}
	.st5{fill:#F4F4F4;}
	.st6{fill:#0894FF;}
	.st7{fill:#8C470C;}
	.st8{fill:#17C1CE;}
	.st9{font-family:'Montserrat-SemiBold';}
	.st10{font-size:32px;}
	.st11{fill:none;stroke:#17C1CE;stroke-width:5;stroke-miterlimit:10;}
	.st12{fill:#606060;}
	.st13{fill:#FFFFFF;}
	.st14{fill:none;stroke:#606060;stroke-width:5;stroke-miterlimit:10;}
	.st15{fill:#125B86;}
	.st16{fill:none;stroke:#125B86;stroke-width:5;stroke-miterlimit:10;}
	.st17{fill:none;stroke:#521B66;stroke-width:5;stroke-miterlimit:10;}
	.st18{fill:#0C85FE;}
	.st19{fill:none;stroke:#0C85FE;stroke-width:5;stroke-miterlimit:10;}
	.st20{fill:#ED1C24;stroke:#ED1C24;stroke-width:3;stroke-miterlimit:10;}
	.st21{fill:#ED1C24;stroke:#FF1500;stroke-width:6;stroke-miterlimit:10;}
	.st22{fill:#ED1C24;}
	.st23{fill:none;stroke:#ED1C24;stroke-width:5;stroke-miterlimit:10;}
</style>
<g>
	<path class="st0" d="M434,180.17c0,0-97.78-33.68-121.91,10.66c0,0-25.14,37.6,9.1,121.23c0,0,45.46,39.85,65.11,27.5
		c0,0,55-29.19,55-75.21C441.3,264.35,446.91,214.96,434,180.17z"/>
	<path class="st1" d="M410.99,358.08c0,0,114.5,21.89,143.12,106.92c0,0,22.73,47.99,24.41,180.16c0,0-31.99,93.45-52.2,111.97
		l4.21,42.51h-337.6v-23.99l-35.36-79.28l-7.58,9.4c0,0-8.42-58.93,5.89-111.13c0,0,10.94-81.66,31.99-115.34
		c0,0-3.37-59.77,36.2-74.09l66.51-16.84L410.99,358.08z"/>
	<path class="st0" d="M413.52,318.52c0,0-16.84,14.92-20.21,35.24c0,0-10.1,19.48-24.41,25.37c0,0-17.68,18.52-27.78,42.09
		c0,0-18.52,39.57-32.83,31.99l-20.21-66.87c0,0,30.31-41.73,30.31-67.83l-5.89-47.15L413.52,318.52z"/>
	<path class="st2" d="M398.36,331.3l-17.96,22.45c0,0-20.21,1.64-45.46-30.92c0,0,26.38,15.46,43.78,17.01
		C378.72,339.84,386.02,343.08,398.36,331.3z"/>
	<path class="st3" d="M317.54,179.6c0,0-13.47,79.14,0,119.55c0,0,11.79,25.26-27.78,87.56c0,0-29.47,122.07-68.19,141.44
		c0,0-22.73-4.21-36.2,41.25c0,0-18.52-37.32-5.89-56.97c0,0,42.94-68.47,46.3-107.2l42.94-107.2c0,0,18.52-49.39,19.36-75.49
		C288.08,222.54,299.86,177.92,317.54,179.6z"/>
	<path class="st3" d="M427.83,161.92c0,0,31.99,97.66,0,137.23c0,0-32.83,28.75-37.04,63.62c0,0-35.36,17.2-58.93,75.29
		c0,0-60.62,65.67-52.2,143.96c0,0,0.84,9.26,12.63,0c0,0,5.89,7.58-21.05,30.31c0,0-22.73,20.21,18.52,19.36
		c0,0,14.31-41.25,57.25-53.04c0,0,53.88-97.66,63.14-165.01c0,0,43.78-20.21,40.41-55.56c0,0,71.09-39.57,0.18-161.64
		L427.83,161.92z"/>
	<path class="st4" d="M286.95,228.43c0,0,23.57-47.71,67.35-54.44c0,0,76.33-8.42,93.17,17.96c0,0,3.37-25.82-3.37-34.24
		l64.54-29.19L391.91,36.48L197.15,136.95l76.89,47.15C274.04,184.09,286.39,213.28,286.95,228.43z"/>
	<path class="st1" d="M266.19,102.15c0,0,2.25,11.79,6.74,15.72c0,0,2.25,11.79-6.74,14.59c0,0,7.3,152.1,12.35,162.77l-20.77,3.93
		l3.37-166.69c0,0-12.91-8.42,1.68-25.26L266.19,102.15z"/>
	<path class="st5" d="M143.27,488.86l84.19,170.62l-26.94,14.03l-84.19-171.75C116.33,501.77,122.5,484.37,143.27,488.86z"/>
	<path class="st6" d="M192.66,586.52l-7.3-17.12l-25.82,13.75c0,0-29.19,1.12-12.91,12.35c0,0,2.81,6.17,14.59,0l5.95,7.86
		L192.66,586.52z"/>
	<path class="st0" d="M280.22,650.5c0,0-23.01-0.56-11.79,35.92c0,0,19.64,40.97-34.24,37.6c0,0,6.17,26.38-35.36,18.52
		c0,0-71.84-47.15-12.35-81.94c0,0-20.21-7.3,2.81-12.91h27.5l4.77-12.91c0,0,11.51,0.56,14.32,15.15
		C235.88,649.94,247.67,636.47,280.22,650.5z"/>
	<path class="st7" d="M190.84,670.43c0,0-15.15,23.99,9.26,38.73l21.46,12.63c0,0-30.63-5.37-38.72-29.05
		C182.84,692.74,175.26,673.37,190.84,670.43z"/>
</g>
<g>
	<rect x="1831.39" y="35.11" class="st8" width="18.47" height="93.67"/>
	<path class="st8" d="M649.87,128.78h92.49c0,0,93.67,0,93.67-93.67H735.24C735.24,35.11,649.87,45.78,649.87,128.78z"/>
	<g>
		<text transform="matrix(1 0 0 1 843.3618 73.5603)"><tspan x="0" y="0" class="st1 st9 st10">Selection of Puthri scholars for scholarship in school during </tspan><tspan x="0" y="38.4" class="st1 st9 st10">Career Counselling Session</tspan></text>
		<text transform="matrix(1 0 0 1 688.0853 92.7612)" class="st1 st9 st10">Step 1: </text>
	</g>
	<line class="st11" x1="650" y1="130.33" x2="1849.86" y2="128.78"/>
</g>
<g>
	<rect x="1831.39" y="160.76" class="st12" width="18.47" height="93.67"/>
	<path class="st12" d="M649.87,254.43h92.49c0,0,93.67,0,93.67-93.67H735.24C735.24,160.76,649.87,171.43,649.87,254.43z"/>
	<text transform="matrix(1 0 0 1 688.0853 217.0496)" class="st13 st9 st10">Step 2: </text>
	<g>
		<text transform="matrix(1 0 0 1 867.4729 217.0491)" class="st12 st9 st10">Data verification calls with Puthri scholars</text>
	</g>
	<line class="st14" x1="649.73" y1="255.2" x2="1849.6" y2="253.65"/>
</g>
<g>
	<rect x="1831.39" y="285.63" class="st15" width="18.47" height="93.67"/>
	<path class="st15" d="M649.87,379.3h92.49c0,0,93.67,0,93.67-93.67H735.24C735.24,285.63,649.87,296.3,649.87,379.3z"/>
	<text transform="matrix(1 0 0 1 688.0853 341.9242)" class="st13 st9 st10">Step 3: </text>
	<g>
		<text transform="matrix(1 0 0 1 867.4734 341.9239)" class="st15 st9 st10">Donor Campaign &amp; Identification</text>
	</g>
	<line class="st16" x1="649.73" y1="380.08" x2="1849.6" y2="378.53"/>
</g>
<g>
	<rect x="1831.39" y="418.07" class="st1" width="18.47" height="93.67"/>
	<path class="st1" d="M649.87,511.74h92.49c0,0,93.67,0,93.67-93.67H735.24C735.24,418.07,649.87,428.74,649.87,511.74z"/>
	<text transform="matrix(1 0 0 1 688.0856 474.3582)" class="st13 st9 st10">Step 4: </text>
	<g>
		<text transform="matrix(1 0 0 1 867.4724 474.3577)" class="st1 st9 st10">Assisting Puthri Scholars  for College enrollment</text>
	</g>
	<line class="st17" x1="649.87" y1="513.63" x2="1849.73" y2="512.08"/>
</g>
<g>
	<rect x="1830.7" y="556.74" class="st18" width="18.47" height="93.67"/>
	<path class="st18" d="M649.18,650.41h92.49c0,0,93.67,0,93.67-93.67H734.55C734.55,556.74,649.18,567.41,649.18,650.41z"/>
	<text transform="matrix(1 0 0 1 687.3973 613.0312)" class="st13 st9 st10">Step 5: </text>
	<g>
		<text transform="matrix(1 0 0 1 866.7842 613.0308)" class="st18 st9 st10">Academic Performance tracking </text>
	</g>
	<line class="st19" x1="650" y1="651.19" x2="1849.86" y2="649.64"/>
</g>
<g>
	<rect x="1831.39" y="703.33" class="st20" width="18.47" height="93.67"/>
	<path class="st21" d="M649.87,797h92.49c0,0,93.67,0,93.67-93.67H735.24C735.24,703.33,649.87,714,649.87,797z"/>
	<g>
		<text transform="matrix(1 0 0 1 688.0853 759.6211)" class="st13 st9 st10">Step 6: </text>
	</g>
	<g>
		<text transform="matrix(1 0 0 1 867.4729 759.6204)" class="st22 st9 st10">Puthri Mentoring Continues</text>
	</g>
	<line class="st23" x1="647.63" y1="797.78" x2="1847.49" y2="796.23"/>
</g>
</svg>
