<svg width="25" height="27" viewBox="0 0 25 27" fill="none" xmlns="http://www.w3.org/2000/svg">
<path d="M0 0.230469H25V26.1686H0V0.230469Z" fill="#EC038D"/>
<path d="M16.948 10.8433V11.1485C16.9446 11.964 16.8017 12.7725 16.5262 13.5362C16.2372 14.3333 15.8128 15.0701 15.273 15.7117C14.7049 16.3837 14.0083 16.926 13.2275 17.3039C12.3477 17.7149 11.3924 17.9231 10.4275 17.9141C9.79554 17.9151 9.16675 17.8213 8.5607 17.6354C7.97315 17.4589 7.41328 17.1952 6.89844 16.8525C7.07753 16.8704 7.2607 16.8793 7.44798 16.8789C7.96594 16.8807 8.48041 16.7908 8.96933 16.6134C9.44772 16.4406 9.89655 16.1899 10.2989 15.8706C9.81775 15.8577 9.35264 15.6883 8.96933 15.3863C8.58644 15.0948 8.30406 14.6833 8.16389 14.2125C8.303 14.2393 8.44421 14.2525 8.5857 14.2521C8.78846 14.2523 8.99043 14.2256 9.18662 14.1724C8.84636 14.1021 8.52676 13.9499 8.25345 13.7282C7.97467 13.5059 7.74922 13.2197 7.59479 12.892C7.43779 12.5638 7.35274 12.2037 7.34571 11.8375V11.7979C7.66415 11.9911 8.02507 12.0961 8.39388 12.103C8.08105 11.8853 7.82421 11.5917 7.6457 11.2475C7.4638 10.9003 7.36996 10.5108 7.37299 10.1157C7.37171 9.69663 7.47757 9.28475 7.6798 8.92203C8.2573 9.65669 8.97643 10.258 9.79106 10.6874C10.6057 11.1168 11.4978 11.3647 12.4102 11.4154C12.376 11.2363 12.3589 11.0542 12.3593 10.8717C12.3558 10.4523 12.4618 10.0398 12.6662 9.67803C12.8681 9.31814 13.1566 9.0188 13.5034 8.80931C13.8492 8.59497 14.2448 8.48263 14.6475 8.4844C14.9618 8.48336 15.2729 8.54986 15.5612 8.67973C15.8494 8.80959 16.1087 9 16.3225 9.23895C16.8377 9.13474 17.3312 8.93708 17.7803 8.65509C17.6977 8.93249 17.5654 9.19125 17.3902 9.4177C17.2172 9.64263 17.0073 9.83417 16.7703 9.9836C17.2294 9.92438 17.6774 9.79473 18.0998 9.59881C17.7885 10.0799 17.3987 10.5011 16.948 10.8433Z" fill="white"/>
</svg>
