<?xml version="1.0" encoding="utf-8"?>
<!-- Generator: Adobe Illustrator 26.3.1, SVG Export Plug-In . SVG Version: 6.00 Build 0)  -->
<svg version="1.1" id="Layer_1" xmlns="http://www.w3.org/2000/svg" xmlns:xlink="http://www.w3.org/1999/xlink" x="0px" y="0px"
	 viewBox="0 0 180 180" style="enable-background:new 0 0 180 180;" xml:space="preserve">
<style type="text/css">
	.st0{fill:#EC008C;}
</style>
<g>
	<path class="st0" d="M77.55,128.98c-18.09-0.11-31.83-6.04-44.57-14.73c-11.81-8.05-21.94-17.94-30.7-29.21
		c-2.8-3.6-3.07-6.52-0.47-9.88C15.79,57.1,32.36,42.21,54.19,34.22c20.4-7.46,39.49-3.48,57.61,7.32c1.68,1,4.67,1.62,4.42,3.61
		c-0.2,1.64-3.27,1.22-5.05,1.78C96.74,51.51,84.74,58.96,78.97,73.9c-6.56,16.97-2.03,37.01,11.23,49.45
		c0.76,0.71,2.14,1.21,1.91,2.41c-0.28,1.42-1.88,1.28-2.96,1.55C84.58,128.45,79.94,129.11,77.55,128.98z M47.83,79.45
		c0.13,2.24,0.05,4.88,0.74,7.48c0.77,2.92,2.32,5.01,5.48,5.46c4.95,0.69,8.01-2.91,7.26-8.46c-1.56-11.46,1.36-16.2,12.18-19.68
		c3.18-1.02,4.69-3.19,4.56-6.49c-0.19-4.8-4.51-7.24-10.17-5.78C55.79,55.1,47.77,65.92,47.83,79.45z M46.48,105.37
		C33.2,88.14,34.91,67.24,49.6,52.32c-12.71,6.8-22.44,15.94-31.51,25.9c-1.27,1.39-0.47,2.33,0.43,3.4
		c3.5,4.14,7.3,7.98,11.38,11.53C34.94,97.55,40.09,101.79,46.48,105.37z"/>
	<path class="st0" d="M158.5,90.62c-0.11,7-1.83,13.54-5.53,19.53c-0.66,1.07-1.79,2.11-0.37,3.48c1.16,1.11,2.15,2.18,4.05,1.3
		c2.77-1.28,5.2-0.3,7.23,1.69c4.63,4.56,9.28,9.1,13.75,13.8c3.2,3.38,3.11,6.55-0.02,9.87c-2.23,2.36-4.53,4.66-6.89,6.89
		c-3.32,3.14-6.53,3.27-9.88,0.09c-4.8-4.55-9.42-9.29-14.04-14.02c-1.78-1.82-2.72-4.1-1.62-6.6c0.84-1.92,0.23-3.12-1.12-4.42
		c-1.58-1.52-2.63-0.17-3.78,0.52c-24.82,14.76-56.33-2.6-57.07-31.47c-0.51-19.65,14.4-36.07,34.84-38.38
		C135.83,50.9,154,64.56,157.7,82.74C158.23,85.33,158.64,87.95,158.5,90.62z M146.01,90.66c0.05-14.2-10.83-25.29-24.9-25.38
		c-14.08-0.09-25.35,10.96-25.43,24.94c-0.09,14.36,10.87,25.42,25.2,25.43C135.21,115.66,145.96,104.97,146.01,90.66z"/>
	<path class="st0" d="M117.62,113.72c-7.8-0.01-19.13-10.83-19.29-18.47c-0.04-2.19,1.01-3.72,3.16-4.23
		c2.13-0.51,4.04,0.27,4.72,2.32c2.17,6.58,6.29,10.85,13.18,12.48c2.02,0.48,3.12,2.36,2.69,4.53
		C121.62,112.65,119.95,113.72,117.62,113.72z"/>
	<path class="st0" d="M107.28,83.1c-0.23,2.62-1.5,4.3-4.04,4.32c-2.32,0.02-3.89-1.49-3.99-3.81c-0.11-2.53,1.45-4.09,3.97-4.14
		C105.58,79.42,106.9,80.89,107.28,83.1z"/>
</g>
</svg>
